<?xml version="1.0" standalone="no"?>
<!DOCTYPE svg PUBLIC "-//W3C//DTD SVG 1.1//EN" "http://www.w3.org/Graphics/SVG/1.1/DTD/svg11.dtd" >
<svg xmlns="http://www.w3.org/2000/svg">
<metadata>
This is a custom SVG webfont generated by Font Squirrel.
Copyright   : Sweetie Pie  egoboxcom 2008 All Rights Reserved
</metadata>
<defs>
<font id="SweetiePieRegular" horiz-adv-x="1002" >
<font-face units-per-em="2048" ascent="1638" descent="-410" />
<missing-glyph horiz-adv-x="901" />
<glyph unicode=" "  horiz-adv-x="901" />
<glyph unicode="&#x09;" horiz-adv-x="901" />
<glyph unicode="&#xa0;" horiz-adv-x="901" />
<glyph unicode="!" horiz-adv-x="264" d="M0 92q0 40 64 48q68 -11 68 -20q-9 -120 -60 -120h-8q-44 0 -64 92zM0 1552v32l8 8h40l8 -8v-24l32 -960l-4 -108v-52l-8 -8q-48 3 -48 12v40l4 112zM56 84l8 -20h4l4 20h-16z" />
<glyph unicode="&#x22;" horiz-adv-x="384" d="M60 1401v44q10 80 24 80q44 -20 44 -32q-12 -19 -12 -52v-40l4 -88l-4 -4h-44q-12 0 -12 92zM148 1301q0 36 40 192h40l12 -12l-40 -192h-44q-8 0 -8 12z" />
<glyph unicode="#" horiz-adv-x="1139" d="M0 954v40l8 8h40q101 0 300 -16v4q-48 279 -48 412v44l8 8h24q24 -2 24 -12v-40q0 -150 52 -420h312v4q-68 364 -68 504l4 4h44l8 -8q0 -130 68 -500v-4h204l8 -8v-40l-8 -8h-196l20 -192h204l8 -8v-40l-8 -8h-196l44 -316q-18 -8 -52 -8q-24 122 -48 324l-312 4v-4 q0 -63 32 -280q-18 -8 -52 -8h-4l-36 292l-324 4l-4 4v44l8 8l316 -4v4l-20 188l-312 16h-40zM416 926l20 -188h4l308 -4l-20 192h-312z" />
<glyph unicode="$" horiz-adv-x="1010" d="M0 556v4l8 8h40q6 0 16 -32q64 -60 284 -60v4l4 284v40q0 8 -72 28q-160 68 -160 156v20q0 101 120 180q55 28 108 28h12v180l8 8h40l8 -8v-180q279 0 380 -72v-4q-26 -36 -36 -40q-85 60 -344 60l-4 -220v-88q0 -9 44 -16q169 -61 236 -188l12 -60v-8q0 -107 -200 -148 l-100 -8v-220l-8 -8h-40l-8 8v216h-4q-286 0 -336 104zM176 988q0 -63 180 -124v76l4 220h-8q-138 0 -176 -148v-24zM404 480h4q240 13 240 108v4q0 96 -200 188l-40 12v-24z" />
<glyph unicode="%" horiz-adv-x="987" d="M30 213q181 286 472 832q105 178 232 352q27 -14 40 -32v-4q-239 -344 -508 -864q-110 -194 -192 -316q-40 21 -44 32zM218 1109v4q18 84 64 84h4q39 0 48 -64q0 -47 -68 -56q-25 0 -48 32zM570 569q0 21 24 36l12 -4q32 16 56 16l12 -48q-14 -60 -60 -60q-44 12 -44 60z " />
<glyph unicode="&#x26;" d="M0 380v24q0 196 172 380l80 60q-100 206 -112 364v28q0 125 292 168h60q141 0 200 -148q16 -33 16 -88v-16q0 -208 -344 -316l-36 -16q48 -87 208 -300l68 -116q111 97 128 152l60 132l48 -24q-75 -211 -204 -304v-8l52 -92l-40 -24h-4l-56 84q-140 -124 -348 -124 q-193 0 -236 136zM56 380q0 -128 184 -128h4q188 0 316 116v4q-77 138 -236 344l-48 76q-139 -76 -208 -292l-12 -104v-16zM196 1212q0 -123 108 -344q295 112 320 188q28 49 28 100v20q-20 172 -164 172h-32q-145 0 -244 -80q-16 -17 -16 -32v-24z" />
<glyph unicode="'" horiz-adv-x="271" d="M35 1463l9 7h101l19 -14l9 -228l-9 -7q-120 0 -120 50z" />
<glyph unicode="(" horiz-adv-x="682" d="M0 592v52q0 466 284 828q66 68 132 68l4 -4v-44q0 -6 -52 -20q-100 -87 -152 -200q-160 -290 -160 -624v-56q0 -425 356 -528l48 -8l32 4l24 -44q-15 -12 -52 -16q-96 0 -256 100q-208 164 -208 492z" />
<glyph unicode=")" horiz-adv-x="682" d="M0 8v40l8 8h12q201 0 344 324q44 121 44 268q0 426 -292 748l-100 80l28 44q249 -151 372 -548q48 -174 48 -328q0 -371 -268 -584q-87 -60 -184 -60h-4z" />
<glyph unicode="*" horiz-adv-x="739" d="M68 1546l48 20q26 -45 92 -92h12l-4 52q2 100 20 100q44 -8 44 -16l-8 -84v-32h4q150 32 248 64l16 -44v-8l-260 -72q0 -11 92 -76v-4q-28 -36 -36 -36l-36 24v-4l12 -52q-23 -12 -52 -12l-28 116l-32 20q-39 -15 -88 -56h-4l-32 32v4q52 54 76 56q-83 75 -84 100z" />
<glyph unicode="+" horiz-adv-x="769" d="M0 637v40l8 8h76l200 4q-16 206 -16 312l4 4h44l8 -8q0 -104 16 -308l28 4l204 4l4 -4v-44l-8 -8l-216 -4l-4 -4v-4l12 -240v-12l-8 -8h-40l-8 8v12l-12 244h-4l-216 -4h-64z" />
<glyph unicode="," horiz-adv-x="279" d="M0 12v36q32 21 32 48v32l-12 40l40 28q28 -33 28 -68v-32q-16 -89 -64 -96h-12z" />
<glyph unicode="-" horiz-adv-x="754" d="M15 558v40l8 8h512l8 -8v-40l-8 -8h-512z" />
<glyph unicode="." horiz-adv-x="324" d="M0 48v20q0 54 56 64h12q51 0 60 -64v-24q-40 0 -40 -36q-16 -8 -44 -8h-8l-4 4h-4l4 4v12q-32 0 -32 28z" />
<glyph unicode="/" horiz-adv-x="1176" d="M0 28q85 150 304 444l444 680q296 368 312 512h4q48 -4 48 -16q-28 -165 -284 -484q-74 -89 -340 -508q-127 -210 -352 -512l-92 -144q-36 16 -44 28z" />
<glyph unicode="0" horiz-adv-x="1070" d="M0 360v64q0 162 132 400q82 104 104 104v4h-12q-46 0 -92 -32l-36 36q50 52 128 52h24q195 0 468 -236q164 -180 164 -368v-24q0 -212 -224 -328q-78 -32 -156 -32h-40q-178 0 -356 124q-104 87 -104 236zM56 356q0 -237 352 -296l52 -4h44q214 0 308 220q12 50 12 88v24 q0 224 -248 408q-91 63 -196 108l-8 -12l-44 12q-148 0 -260 -380l-12 -104v-64z" />
<glyph unicode="1" horiz-adv-x="241" d="M0 1044v16l8 8h40l8 -8v-16l12 -1040l-4 -4h-44q-8 0 -8 12z" />
<glyph unicode="2" horiz-adv-x="1139" d="M0 1096q121 124 312 124h28q246 0 292 -400v-40q0 -298 -384 -636q-80 -49 -80 -56h8l644 -32l4 -4v-44l-8 -8l-744 36h-20l-12 52q81 32 188 112q348 311 348 584q0 254 -152 364q-38 16 -76 16h-36q-155 0 -272 -100z" />
<glyph unicode="3" horiz-adv-x="837" d="M0 136v16q0 8 12 8q48 0 48 -40q68 -64 220 -64h12q139 0 280 176q36 62 36 116v20q0 141 -168 232q0 24 -284 32l-76 16v4q66 54 256 164q152 103 152 184q0 52 -84 84q-37 16 -92 16h-40q-138 0 -216 -84q-44 20 -44 28q84 112 264 112h32q161 0 220 -104 q16 -33 16 -60q0 -135 -316 -304v-4h12q243 0 324 -104q100 -97 100 -220v-16q0 -182 -268 -324q-64 -20 -112 -20h-4q-226 0 -276 116z" />
<glyph unicode="4" horiz-adv-x="1055" d="M0 620v4q120 537 120 624h40q12 0 12 -16q-27 -234 -104 -564h4l400 -8q-20 157 -20 276v76h48l8 -8v-64q0 -129 20 -280l100 4h244l8 -8v-40l-8 -8h-268l-68 -4q64 -434 64 -596l-12 -8h-36q-8 0 -8 12q0 151 -64 592l-476 12z" />
<glyph unicode="5" horiz-adv-x="987" d="M0 1040v24q0 150 284 196q159 28 360 28h44l8 -8v-40l-8 -8h-56q-428 0 -564 -116q-12 -31 -12 -56v-16q0 -39 68 -252l4 -24q236 68 372 68h4q237 0 300 -348q32 -129 32 -184q0 -167 -204 -276q-71 -28 -132 -28h-12q-259 0 -340 140l-8 36v32l8 8q48 0 48 -28 q0 -114 288 -132h24q158 0 256 172q16 53 16 80q0 86 -80 336q-57 136 -200 136h-12q-117 0 -416 -84h-4v4l4 48q0 41 -68 252z" />
<glyph unicode="6" horiz-adv-x="791" d="M0 348v44q0 288 236 580q106 112 192 112l8 -32v-16q0 -5 -60 -20q-191 -110 -300 -468q-20 -91 -20 -156v-44q0 -84 36 -140h4q0 204 216 204q186 0 304 -136q27 -41 28 -72v-20q0 -129 -184 -180l-48 -4q-157 0 -316 124q-96 82 -96 224zM152 148q141 -92 256 -92 q140 0 180 116v24q0 102 -224 156l-56 4q-115 0 -148 -80q-8 -16 -8 -44v-16l8 -60z" />
<glyph unicode="7" horiz-adv-x="1138" d="M0 1060v44l8 8q648 16 648 28q59 40 72 40l4 -104q0 -46 -52 -440l-4 -44h20q137 0 256 16l12 -52q-98 -20 -268 -20h-24q-24 -433 -60 -536q-48 5 -48 16q32 165 52 520h-88l-208 4l-4 4v44l4 4v4l208 -4h92l52 428l4 72q0 -23 -452 -28q0 -5 -220 -8z" />
<glyph unicode="8" horiz-adv-x="965" d="M0 844v20q0 145 184 212l60 8h84q141 0 180 -68l8 -32q0 -8 -28 -8q116 -107 116 -212v-32q0 -101 -100 -240v-4q256 -178 256 -300v-16q0 -108 -212 -160q-83 -12 -156 -12h-16q-217 0 -248 124l-4 20q0 115 272 312l24 28q-289 175 -392 268q-28 46 -28 92zM56 848 q0 -76 92 -120l308 -204h4q88 128 88 204v36q0 96 -116 180q-24 0 -24 40v16h12l36 -8q-24 36 -132 36h-76q-147 0 -192 -148v-32zM180 140q27 -84 168 -84h48q228 0 296 88q12 15 12 36v12q-6 90 -236 256h-4l-212 -184q-72 -74 -72 -124z" />
<glyph unicode="9" horiz-adv-x="791" d="M0 860v16q0 152 144 316q77 52 168 52h116q150 0 196 -60l-32 -32q20 0 20 -8v-1136l-8 -8h-40l-8 8v744h-4q-54 -96 -180 -96q-189 0 -320 92q-52 51 -52 112zM56 856q0 -105 252 -140l76 -4q128 0 160 176q12 78 12 216v40q0 8 24 8v4q-51 32 -152 32h-112 q-172 0 -236 -204q-24 -50 -24 -100v-28z" />
<glyph unicode=":" horiz-adv-x="354" d="M61 467q17 44 56 44q48 0 48 -40v-4q-7 -60 -44 -60h-8q-32 0 -52 60zM73 875v20q0 48 64 60h4l8 -8v-4l-4 -4v-4q32 -18 32 -60q0 -34 -48 -48q-56 12 -56 48z" />
<glyph unicode=";" horiz-adv-x="1144" d="M13 659v16q0 104 114 160q26 12 56 12q138 0 231 -305q9 -58 15 -58q81 211 194 320q92 65 148 65h16q85 0 117 -111l6 -52v-10q0 -176 -250 -462q-107 -103 -293 -228h-3l-24 31l49 40q-376 385 -376 582z" />
<glyph unicode="&#x37e;" horiz-adv-x="1144" d="M13 659v16q0 104 114 160q26 12 56 12q138 0 231 -305q9 -58 15 -58q81 211 194 320q92 65 148 65h16q85 0 117 -111l6 -52v-10q0 -176 -250 -462q-107 -103 -293 -228h-3l-24 31l49 40q-376 385 -376 582z" />
<glyph unicode="&#x3c;" horiz-adv-x="708" d="M30 755v16q79 13 220 152q119 150 212 216q11 -4 32 -44q-19 0 -280 -284l-104 -72q237 -240 344 -280q26 0 28 -12v-40l-4 -4v-4q-81 0 -244 148q-133 106 -204 208z" />
<glyph unicode="=" horiz-adv-x="723" d="M53 720v44l8 8l304 -16q69 0 148 20l16 -48q-54 -28 -172 -28l-300 16zM73 452v40l8 8h440l8 -8v-40l-8 -8h-440z" />
<glyph unicode="&#x3e;" horiz-adv-x="648" d="M15 1123l28 44q66 -43 184 -192q130 -119 232 -152v-4q-56 -100 -304 -380q-12 -32 -24 -32q-40 6 -40 20q0 34 176 224l112 148q-141 58 -304 272z" />
<glyph unicode="?" horiz-adv-x="1040" d="M8 1288q0 66 116 144q145 72 340 72h48q255 0 328 -196q32 -59 32 -128q0 -177 -340 -292q-52 0 -128 -64q-36 -44 -36 -104l36 -240q0 -46 -28 -96q-44 20 -44 32q16 35 16 72l-36 236q0 185 276 240q228 100 228 220q0 141 -152 244q-76 20 -148 20h-68 q-250 0 -364 -120q-16 -24 -24 -56q-52 5 -52 16zM272 80q0 51 72 64h32q76 -13 76 -68q0 -52 -76 -68h-24q-80 11 -80 72z" />
<glyph unicode="@" horiz-adv-x="934" d="M7 832v28q0 216 224 300l64 8h32q213 0 320 -240q12 -34 12 -64q0 -111 -148 -136q-57 0 -92 64q-48 -92 -104 -92q-67 0 -92 108q0 88 136 144l32 4q38 0 64 -44l8 -8v-28q8 -92 36 -92h16q88 17 88 80q0 91 -124 200q-66 48 -156 48h-24q-161 0 -224 -176 q-12 -32 -12 -68v-32q0 -181 256 -280q60 -24 152 -32q96 10 96 60l4 4h4q48 -7 48 -16q-35 -96 -108 -96l-44 -8q-153 0 -332 120q-132 118 -132 244zM279 804q12 -48 44 -48q54 47 76 132v12h-12q-69 0 -108 -92v-4z" />
<glyph unicode="A" horiz-adv-x="1146" d="M7 35l21 89q0 17 45 122q27 107 78 228l40 143l35 105q0 34 19 73l75 244q19 43 62 215q32 155 46 155q11 45 39 45h15q32 -21 32 -45q62 -163 73 -210q20 -28 35 -85q25 -63 39 -141q49 -168 84 -235l7 -48q11 -26 33 -105q9 -18 21 -68q65 -179 91 -288l43 -130 q14 -14 14 -46q-5 -36 -29 -36q-34 0 -50 96q-22 74 -39 116l-22 94q-14 28 -39 107q-14 20 -40 135q-12 23 -39 116q-23 25 -105 25q-112 14 -173 14q-36 -12 -62 -12h-56q-24 0 -42 -80q-6 -10 -38 -130l-34 -100q-14 -16 -35 -105q-19 -48 -35 -109q-12 -23 -22 -61 q-23 -20 -34 -97l-16 -22q-37 0 -37 31zM308 788q0 -7 12 -13l127 11h29l9 2q95 -16 164 -16q6 0 14 14l-43 121l-21 80q0 42 -76 234q-27 99 -48 138h-8q-29 -96 -29 -110q-14 -70 -74 -258q-5 -8 -19 -73q-6 -11 -37 -130z" />
<glyph unicode="B" horiz-adv-x="1146" d="M0 112q64 386 64 608q0 124 -44 540l-4 156l4 216l4 4h44l8 -8v-20h64q477 0 624 -116q172 -116 172 -256q0 -245 -408 -332h-4v-4q121 -33 268 -180q152 -159 152 -320q0 -232 -324 -360q-125 -40 -244 -40q-175 0 -376 112zM64 136q179 -80 316 -80q278 0 448 184 q60 77 60 164q0 187 -244 372q-132 96 -288 96h-204l-8 8v40l8 8h56q532 10 648 216q24 43 24 92q0 161 -268 268q-141 48 -460 48h-76l-4 -112q0 -188 44 -600l4 -128q0 -166 -56 -576z" />
<glyph unicode="C" horiz-adv-x="1281" d="M0 448v32q0 373 416 916q136 136 208 156q97 32 212 32h52v-48l-8 -8h-52q-263 0 -404 -216q-145 -184 -268 -432q-100 -233 -100 -400v-32q0 -280 400 -380l104 -12q170 0 388 156q80 72 88 100h4q21 0 48 -28q-125 -176 -388 -264q-92 -20 -136 -20q-271 0 -492 220 q-72 102 -72 228z" />
<glyph unicode="D" horiz-adv-x="1349" d="M0 1576q140 36 264 36h52q583 0 812 -868q20 -77 20 -144q0 -338 -412 -536q-164 -64 -304 -64h-44q-123 0 -252 56v4l24 44q123 -48 228 -48h44q311 0 552 252q108 141 108 296q0 153 -136 472q-230 480 -640 480h-52q-74 0 -204 -20v-4q12 -174 64 -564 q24 -291 24 -548v-304l-8 -8h-40l-8 8v304q0 476 -80 984z" />
<glyph unicode="E" horiz-adv-x="1172" d="M0 80v40l28 1292v88q0 8 12 8v32l8 8l692 -4l4 -4v-44q0 -8 -12 -8l-648 4v-60q0 -322 -12 -608h544l8 -8v-40l-8 -8h-544q-16 -336 -16 -648v-20h4l632 -44h48l220 4l4 -4v-44l-8 -8l-224 -4q-83 0 -640 44h-68l-8 8v20q-16 0 -16 8z" />
<glyph unicode="F" horiz-adv-x="957" d="M0 1436v36q0 8 12 8l-8 12q39 36 152 36h32l60 -4q235 32 284 32h212l8 -8v-40l-8 -8h-212q-47 0 -284 -32l-44 4h-56q-52 0 -92 -12v-24q0 -75 60 -516l4 -64l276 -8h44l8 -8v-40l-8 -8h-36l-284 8v-792l-8 -8h-40l-8 8v788q0 146 -60 556z" />
<glyph unicode="G" horiz-adv-x="1210" d="M0 628v36q0 301 248 584q204 196 636 196h52l8 -8v-40l-8 -8h-52q-529 0 -692 -304q-136 -212 -136 -416v-48q0 -229 272 -472q60 -44 136 -44q164 0 300 160q156 276 156 420v24l8 8h40l8 -8q40 -598 56 -696q-28 -12 -52 -12q-19 101 -44 480h-8q-51 -152 -148 -284 q-150 -148 -328 -148q-194 0 -408 368q-44 109 -44 212z" />
<glyph unicode="H" horiz-adv-x="1146" d="M0 1188v48q8 220 28 220l48 -12q-20 -92 -20 -208v-48l12 -408v-68h20q132 0 636 -64l52 -4v16q0 214 48 744v44l4 4h44q8 0 8 -12l-44 -596l-4 -184v-12l-4 -4v-4q40 0 40 -8v-40l-8 -8h-32v-4q0 -250 16 -524l-52 -8q-20 178 -20 540h-4l-624 68h-76v-116l-8 -352 l4 -184l-4 -4h-44l-8 8l-4 180l8 360v232z" />
<glyph unicode="I" horiz-adv-x="339" d="M0 1432v68l8 8h40l8 -8v-68q0 -316 60 -848q8 -64 8 -176v-400l-8 -8h-40l-8 8v412q0 118 -56 668q-12 154 -12 344z" />
<glyph unicode="J" horiz-adv-x="1236" d="M0 308v20q0 76 20 76l44 -12l-8 -56v-36q0 -171 220 -236l72 -8q238 0 320 252q20 68 20 152v12l-28 428l-8 496v12l4 40h-336l-8 8v40l8 8h748l8 -8v-40l-8 -8h-356l-4 -40v-4q8 -666 32 -852l4 -80v-12q0 -332 -264 -436q-35 -16 -128 -24q-228 0 -332 200 q-20 55 -20 108z" />
<glyph unicode="K" horiz-adv-x="1198" d="M0 800v8l12 16l-8 724l4 4h44q8 0 8 -12l8 -684h4q100 74 276 296l176 200q162 188 200 188l20 -48v-4q-35 0 -312 -320q-167 -215 -320 -356l-16 -4v-4q506 -378 692 -528q194 -161 252 -220q20 -21 20 -32l-36 -24h-8q-139 144 -520 436q-253 181 -424 320v-320 l-8 -320v-48l-8 -8h-40l-8 8v56l8 300v336q0 23 -16 40z" />
<glyph unicode="L" horiz-adv-x="1108" d="M0 1564v16l8 8h40l8 -8v-16q0 -205 84 -936q12 -108 12 -236v-32l4 -12l-4 -20v-268l172 -4l580 4l4 -4v-44l-8 -8l-572 -4q-228 0 -228 20l-4 96v188l4 40l-4 36v20q0 176 -88 948z" />
<glyph unicode="M" horiz-adv-x="1402" d="M0 1512v24q0 20 20 36h40q8 0 8 -44q45 -53 320 -452q130 -170 208 -292q141 161 300 416q62 117 212 304q36 84 44 84h4q32 -97 32 -156l-8 -208v-488l28 -588v-140l-8 -8h-40l-8 8v68q0 137 -28 612v536l8 216q-145 -172 -236 -352q-157 -218 -240 -320l-80 -68 q-82 151 -316 460q-25 45 -192 276v-1384l-8 -8h-40l-8 8v1452q-12 0 -12 8z" />
<glyph unicode="N" horiz-adv-x="1138" d="M0 1436v12l8 8l4 16l4 4h44q8 0 8 -12q0 -128 36 -176q15 -54 364 -520q419 -494 420 -588h4v12q-52 340 -52 432l-8 528q18 212 28 212h40l8 -8l-20 -204q0 -696 44 -836q16 -78 16 -148v-44q0 -41 -28 -124h-4q-47 48 -84 176q-22 104 -456 620q-123 163 -288 404v-4 q24 -185 24 -332v-836l-8 -8h-40l-8 8v836q0 191 -48 524q-7 0 -8 48z" />
<glyph unicode="O" horiz-adv-x="1394" d="M0 604v28q0 261 196 500q127 130 240 160l28 4v44l8 8h80q313 0 468 -208q139 -157 188 -328q28 -139 28 -332q0 -343 -236 -444q-106 -36 -208 -36q-319 0 -636 248q-156 149 -156 356zM56 596q0 -364 580 -524q105 -16 164 -16q380 0 380 424q0 320 -76 444 q-199 368 -504 368q-4 -40 -12 -40h-40q-274 0 -448 -384q-44 -132 -44 -232v-40z" />
<glyph unicode="P" horiz-adv-x="980" d="M0 720v40l8 8h76q-20 299 -20 420v12q0 88 8 140l-24 -16q-39 21 -40 28v4q52 68 188 68h36q376 0 536 -252q40 -81 40 -180q0 -288 -496 -288l-172 4l36 -676v-24l-8 -8h-40l-8 8v12l-36 676v16h-76zM120 1196q0 -132 20 -432l180 -4q432 0 432 232v4q0 249 -304 344 q-107 28 -216 28h-40q-64 0 -64 -16l-8 -152v-4z" />
<glyph unicode="Q" horiz-adv-x="1530" d="M0 604v28q0 261 196 500q113 121 224 152q21 11 44 12v44l8 8h80q313 0 468 -208q139 -157 188 -328q28 -139 28 -332q-4 -100 -16 -168q77 -53 228 -204q-14 -27 -32 -40h-4q-143 138 -204 184h-8q-34 -111 -136 -180q-114 -72 -272 -72q-319 0 -636 248 q-156 149 -156 356zM56 596q0 -364 580 -524q105 -16 164 -16q261 0 348 208l8 28h-4q-178 118 -328 244l-56 24l8 52q59 0 248 -168l140 -92q12 0 16 128q0 320 -76 444q-199 368 -504 368q-4 -40 -12 -40h-40q-243 0 -412 -308q-80 -158 -80 -308v-40z" />
<glyph unicode="R" horiz-adv-x="1153" d="M0 756v40l8 8h20l-4 164q0 289 28 300q122 111 256 128l100 8h40q265 0 356 -184q12 -43 12 -72q0 -212 -304 -340q-76 -16 -312 -44v-4q80 -22 212 -148l204 -196q31 -26 168 -188q184 -178 184 -196v-4q-8 0 -36 -28q-269 272 -344 372q-333 316 -360 316 q-87 42 -140 52q12 -309 12 -528v-160l-8 -8h-40l-8 8v164l-12 532h-24zM80 968l4 -160q460 46 460 76q216 102 216 268q0 157 -276 196h-76q-201 0 -308 -116h-8z" />
<glyph unicode="S" horiz-adv-x="1304" d="M0 472v20l8 8h24q24 -2 24 -12v-20q0 -123 200 -300q177 -112 396 -112h32q263 0 348 164l8 56v36q0 221 -380 380l-384 172q-64 48 -64 116v16q0 256 148 340q97 64 396 64q87 0 100 -68l-12 -8h-36q-19 20 -60 20q-330 0 -400 -88q-80 -68 -80 -256v-24q0 -72 188 -132 q431 -177 544 -300q96 -116 96 -228v-36q0 -178 -228 -252q-81 -28 -184 -28h-32q-446 0 -636 384q-16 58 -16 88z" />
<glyph unicode="T" horiz-adv-x="934" d="M0 1236v40l8 8l728 -4l4 -4v-44l-8 -8h-372l56 -780l4 -240v-196l-8 -8h-40l-8 8v204q0 291 -56 908l-4 108h-296z" />
<glyph unicode="U" horiz-adv-x="961" d="M0 664v28l8 524l8 8h40l8 -8l-8 -524v-44q0 -410 204 -512q122 -80 196 -80q103 0 228 320q24 128 24 212q0 65 -56 588v40l4 4h44q8 0 8 -12q0 -56 56 -584v-40q0 -310 -212 -548q-58 -36 -96 -36q-136 0 -328 172q-128 139 -128 492z" />
<glyph unicode="V" horiz-adv-x="1142" d="M0 1220q29 16 52 16q95 -328 224 -612q134 -278 276 -536h4q76 89 196 424q80 284 128 548q40 134 68 168q36 -16 44 -28q-41 -64 -84 -280q-95 -458 -192 -656q-86 -194 -148 -248l-24 -16q-92 145 -252 460q-178 369 -272 696z" />
<glyph unicode="W" horiz-adv-x="1247" d="M0 1192v32l8 8h40l8 -8v-32q0 -67 64 -500q60 -466 60 -544q201 186 268 320q63 99 104 248h8q43 -136 292 -436q109 -122 136 -172h8q12 47 20 136l-4 632v284l8 8h40l8 -8v-292l4 -624q0 -164 -84 -244q-7 0 -40 76q-324 394 -324 412q-37 45 -56 88l-52 -104 q-113 -217 -384 -436l-4 12q0 166 -68 676q-60 389 -60 468z" />
<glyph unicode="X" horiz-adv-x="1153" d="M0 40v8q76 71 252 280q142 142 236 252q-121 177 -340 464q0 14 -60 68v4q0 44 12 44q47 0 168 -188q158 -198 252 -344l324 412l72 64h12l20 -36v-12q-55 -33 -152 -164l-240 -312l380 -468l44 -88l-48 -24q0 46 -352 456q0 9 -60 80q-85 -100 -324 -352 q-24 -50 -164 -176z" />
<glyph unicode="Y" horiz-adv-x="980" d="M0 1208q37 28 48 28q38 -82 256 -244q15 0 264 -200l24 -12q96 306 156 440q4 28 12 28q48 -4 48 -16q-15 -53 -92 -244l-76 -240q12 0 12 -12q-32 -38 -60 -164q-88 -426 -124 -568l-4 -4h-4q-44 13 -44 20q32 120 108 512l52 192q-57 35 -256 192q-131 80 -288 240z " />
<glyph unicode="Z" horiz-adv-x="1168" d="M0 1148v40l8 8h368l300 -8q58 0 148 28v-4q-54 -122 -240 -384q-117 -157 -220 -404q-126 -247 -184 -332h4q138 28 328 28l480 -12l4 -4v-44l-8 -8l-488 12q-252 0 -464 -64v4q149 167 228 352q172 353 232 448q126 162 224 332l-32 -4l-304 8h-376z" />
<glyph unicode="[" horiz-adv-x="569" d="M0 1548v168l4 120l24 8h292l8 -8v-40l-8 -8h-264v-184l44 -912v-60l-20 -488l4 -88h420l8 -8v-40l-8 -8h-380q-92 0 -92 12l-8 136l20 492q0 118 -44 908z" />
<glyph unicode="\" horiz-adv-x="1115" d="M0 1648v4q23 12 52 12q10 -138 356 -576q291 -479 568 -864q96 -132 124 -200l-48 -24q-90 161 -304 448q-333 529 -452 700q-265 324 -296 500z" />
<glyph unicode="]" horiz-adv-x="528" d="M0 1868q0 20 316 28l80 28q15 0 52 -1300q20 -308 20 -424q-6 -200 -20 -200h-220l-8 8v40l8 8h176l8 156q-24 494 -60 1624l-4 12q-44 -11 -296 -20q0 -8 -40 -8z" />
<glyph unicode="^" horiz-adv-x="746" d="M53 1226q0 66 288 308q37 -38 116 -216l48 -56v-4l-32 -36q-92 90 -124 200l-20 28q-186 -152 -228 -244h-4q-44 12 -44 20z" />
<glyph unicode="_" horiz-adv-x="1402" d="M0 4v44q0 8 12 8l1324 12h20l8 -8v-40l-8 -8h-28l-1324 -12z" />
<glyph unicode="`" horiz-adv-x="347" d="M60 1669l43 54q72 -81 103 -81q0 -71 59 -172v-6q0 -14 -65 -32h-5l-60 156q-30 14 -75 81z" />
<glyph unicode="a" d="M0 220v180l52 128q45 90 144 204q114 112 232 156q44 7 44 16h8v-4l48 4q61 0 116 -28h8l48 60l12 -12v-32l-4 -16l12 -32v-36l-8 -32v-64q0 -47 -8 -64l4 -24v-16l-12 -36l-4 -204v-52q0 -118 20 -172h-4l44 -116q-29 -28 -56 -28q-60 135 -60 216v4l-8 12v48h-12 q-22 -58 -120 -140q-11 -13 -88 -56q-4 -10 -100 -40l-32 -8h-88q-47 14 -92 44q-69 64 -88 132zM60 264q0 -58 84 -140q48 -24 68 -24h28q90 0 168 60q66 30 140 128q52 70 52 212v204l12 20l-4 4v4q0 37 16 80q-30 22 -80 28l-4 4h-16q-72 -12 -132 -40 q-199 -130 -276 -296q-26 -43 -56 -156v-88z" />
<glyph unicode="b" horiz-adv-x="1139" d="M20 1702l4 28v264l-4 16q0 24 28 24h12q28 0 28 -28v-44l4 -444l8 -20l4 -260l12 -12l-4 -28v-68l8 -32v-104l8 -12l4 -236l8 -24v-20l4 -148l4 -4h4q0 70 132 176q142 104 320 120l8 8h64q107 -16 164 -60q65 -55 92 -140q0 -59 8 -80l-8 -12v-36q0 -86 -96 -260 q-132 -154 -196 -164q-23 -21 -108 -48l-80 -20q0 -8 -40 -8l-44 -8l-4 -4h-132q-14 12 -60 12l-12 -32v-56l-8 -8q-52 3 -52 12v100q0 18 -60 64l-12 16v8l40 32h4l24 -20h4v52q-12 15 -12 28v176l4 24l-8 24v136l-8 28l-4 236q-5 28 -12 28l4 20l-4 192l-12 36l-4 232 l-8 8l-4 312q-7 28 -12 28zM168 98q17 0 40 -16l4 4h4l52 -8h52l68 8v-4l40 12v-4q221 59 304 152q92 105 128 236v28l12 16v108l-24 64q-56 69 -120 84q-20 8 -72 8l-92 -4q0 -8 -56 -16q-150 -48 -256 -148q-54 -86 -60 -172l-8 -8l4 -12q-2 -40 -8 -40l4 -20v-24l-12 -48 v-36z" />
<glyph unicode="c" horiz-adv-x="852" d="M0 296l4 20v92l-4 16q12 13 16 64q8 2 24 60q41 83 136 160q95 56 160 56h64q104 -12 104 -32v-16q0 -20 -20 -36h-12q-11 12 -76 24h-64l-92 -32q-172 -109 -172 -300v-20q0 -167 132 -252q56 -32 84 -32l8 -8h112l52 20l48 24q68 53 68 76q13 0 40 64l20 8 q40 -11 40 -28q-45 -127 -176 -196q-74 -28 -92 -28h-108q-96 0 -216 116q0 13 -24 36q-44 89 -44 120q0 17 -12 24z" />
<glyph unicode="d" horiz-adv-x="1010" d="M0 264v40q11 83 20 96q20 83 156 224q183 140 240 140q0 12 40 12q0 16 108 16l72 -4l-4 312l4 700l8 24v124q0 16 52 20l8 -12v-76l12 -16v-52l-4 -24l8 -24v-64l8 -12q0 -132 16 -172v-16l-4 -24q8 -20 8 -72l-4 -28l12 -12l4 -204l8 -36v-300l-8 -32v-32l-4 -76l4 -16 l-16 -28l4 -20l-8 -28l4 -16q-12 0 -16 -56q-5 0 -12 -40q17 -236 28 -236h-4l4 -4v-40q12 -9 20 -64q26 -52 36 -56q-4 -52 -16 -52h-12q-45 18 -68 88q-4 32 -16 44l4 4l-8 32l4 16q-13 0 -20 100l-4 4v4h-12q-35 -109 -160 -240q-9 0 -72 -52q-67 -17 -80 -28h-104 q-9 12 -40 12q-127 55 -168 148q-16 31 -24 100zM64 292l4 -60q5 0 24 -60q48 -69 100 -84q17 -12 60 -20v-4l4 4h48q126 0 220 156q77 91 124 252v48l4 4l-8 32v112l-12 44l-48 12h-76q-51 0 -192 -80q-252 -179 -252 -356zM692 964l8 -8h4v4l-4 308h-8v-304z" />
<glyph unicode="e" horiz-adv-x="972" d="M0 280v24q0 280 284 468q121 72 180 72h44q80 -20 80 -80l8 -32v-52q-7 -62 -68 -128q-81 -78 -224 -144q-103 -40 -160 -52v-4l-20 4h-28q-7 0 -12 20q0 44 28 44q44 0 136 32q12 12 68 28l80 48q136 85 136 180q-6 76 -32 76h-44q-11 -12 -44 -12q-5 -10 -92 -52 l-84 -64q-119 -91 -168 -280l-8 -44v-68l28 -84q46 -64 96 -84q47 -28 136 -28q122 0 248 68q136 85 152 144l24 8h4q36 -20 36 -32q-41 -73 -140 -148q-42 -28 -132 -68l-104 -28h-32q-15 -12 -28 -12h-52l-100 20q-118 43 -168 140q-28 61 -28 120z" />
<glyph unicode="f" d="M7 730v36l12 12h280q8 0 12 40l4 4q4 147 12 168v68l8 32v28l-4 24l12 24l4 108q12 0 12 80q9 3 36 124l36 72q41 64 84 80l44 28h36l16 12h204l20 -16v-44l-8 -8h-4l-12 4l-20 -4h-140l-24 4q-53 -11 -112 -48q-60 -69 -92 -228l4 -20q-16 0 -16 -100l-8 -8l-4 -136 q-12 -2 -12 -28l-4 -136l4 -4v-4q-12 -10 -16 -104l4 -4h4l368 4q4 12 24 12h108q12 -4 12 -24v-20q0 -21 -12 -24l-324 -4l-12 -8h-152q-22 0 -32 -12l4 -4v-8q0 -28 -8 -28l4 -20v-16l-12 -44l-4 -208l-4 -4h-4l-4 -620v-164q0 -20 -12 -24h-40q-16 7 -16 28v528 q12 15 12 28v60l4 300l8 8v80q1 20 8 20l-4 4v60l12 16v8l-8 8h-276z" />
<glyph unicode="g" horiz-adv-x="1055" d="M38 295v96q1 48 8 48l-4 4v4q11 19 28 88q9 3 24 56l76 112q122 141 200 172q101 52 148 52l4 4h92q53 -9 64 -20h64l40 -4q0 28 52 28h4q19 -41 32 -100l-4 -12q8 -17 8 -64v-24q0 -28 -8 -28l4 -20v-28q-16 -17 -16 -76q-7 0 -12 -36h-4l4 -4v-8l-12 -24l-4 -200 l-8 -24v-160l8 -16l4 -136q12 -4 12 -24v-8l-4 -16l16 -76v-16q0 -8 -12 -8v-116l-44 -40q-48 -68 -168 -100h-252q-45 0 -128 60q0 8 -44 20l-84 100v12q8 24 32 24q84 -69 84 -88q22 0 68 -40q56 -32 72 -32h248q55 0 160 108v148q-16 60 -16 128h4l-12 16l-4 208v44l4 48 h-4q-51 -95 -116 -168l-92 -84l-76 -40q-26 0 -36 -12h-36l-40 -12h-12q0 12 -68 12q0 9 -40 16q-140 75 -176 168q-20 43 -20 68q-7 0 -8 20zM98 315q10 -62 56 -132q68 -68 120 -84q36 -20 88 -20q68 0 152 52q119 102 144 156q51 73 96 192q20 37 20 100v72q12 15 12 28 v160q0 11 -40 16h-80l-88 12h-12q-184 0 -360 -224q-58 -78 -88 -172l-20 -72v-84z" />
<glyph unicode="h" horiz-adv-x="799" d="M0 12v1884l12 16l20 -4l12 4q16 -6 16 -12v-1284h8q27 77 148 144l96 24h132q79 -25 88 -40q63 -39 92 -160l4 -40v-124l-4 -148l-8 -8l-4 -140l-8 -24v-12l8 -32l-4 -4h-52l-12 12l4 152l8 8l4 124l12 12l-4 4v172q-15 95 -52 140q-39 44 -124 44h-40q-180 0 -252 -180 q-13 -21 -32 -132l-8 -52v-344l-12 -12h-36z" />
<glyph unicode="i" horiz-adv-x="678" d="M0 1348q9 62 32 88l28 16h40q58 -20 144 -140q50 123 124 156l36 12h48q13 0 60 -60v-48q-38 -160 -192 -284l-20 4q-24 -12 -60 -68l-4 -4h-12q-105 47 -152 136q-39 46 -64 140zM64 1348q0 -111 136 -244h16q41 41 96 76l64 56q72 107 72 144v28l-28 8q-67 0 -140 -176 q-31 -51 -56 -72h-4l-8 8v32q-20 99 -120 176h-12q-9 0 -16 -36zM244 780v36l12 12h40l12 -8l4 -108v-64l12 -16l-4 -20v-8l8 -76v-20l-4 -4l12 -20l4 -156l8 -8v-132l-20 -68v-108l-12 -12h-40l-12 12v104l8 44v24l-4 28q12 0 16 68l-4 112q0 21 -12 24l4 32l-8 76l4 4v4 l-12 32l-4 176v28z" />
<glyph unicode="j" horiz-adv-x="934" d="M30 -231q17 16 32 16q19 0 32 -48q47 -34 64 -64l36 -32h132q18 20 76 32l28 24v224l8 256v260l8 12v472q1 20 8 20l-4 20v80q3 24 12 24h44q12 -2 12 -32v-96l-12 -32l-4 -824l-8 -24v-88l-8 -12v-272q0 -37 -100 -76q-11 0 -40 -24h-160q-14 0 -88 64q0 13 -60 72z M258 1545v76q0 34 56 72l16 -4l12 4q55 -20 92 -68l56 -68h12q29 98 116 152q19 0 28 8h56q45 -17 60 -56v-68q-12 -11 -12 -44l-36 -56q-17 -37 -80 -112q-57 -52 -72 -52l-12 4q-52 -42 -52 -68l-4 -4h-8q-38 0 -120 72q0 10 -56 72q-52 112 -52 140zM318 1549 q11 -13 16 -48q67 -123 104 -144l20 -16h4q30 30 104 80q85 65 112 140l28 68q-5 17 -20 24h-20q-59 0 -128 -160q-29 -58 -60 -84h-8l-8 8l4 4q0 98 -124 204h-12l-12 -20v-56z" />
<glyph unicode="k" horiz-adv-x="1130" d="M0 500q0 36 40 36l64 20q-8 21 -8 92v44l-8 12l-4 268l-12 40v272l4 24q-8 18 -8 52v656l12 12h40l12 -12l-4 -28v-624l12 -60v-292l-4 -4l8 -24v-144l8 -32l4 -184l4 -4h4q21 138 132 256q102 96 164 132q71 50 164 80q44 4 52 12h68q47 -15 88 -40q64 -69 80 -172 l-24 -84q-74 -101 -144 -128q-44 -36 -240 -100l-140 -36v-8h48l76 -16l12 4l88 -36l80 -56q134 -120 180 -220q35 -49 76 -168v-8q-5 -16 -36 -16h-16q-13 0 -36 84l-68 120q-146 209 -288 232q-26 16 -112 16h-168l-4 -20v-232l12 -16v-188q-4 -12 -24 -12h-28l-16 12 l4 28v124l-8 64v232l-8 8h-96l-20 -4q-12 15 -12 36zM216 572l96 20l196 52q86 28 172 68q68 31 136 96q28 51 28 72v28q-37 128 -128 128q-76 0 -148 -40q-90 -42 -212 -148q-58 -61 -88 -116q-52 -113 -52 -160z" />
<glyph unicode="l" horiz-adv-x="455" d="M0 252v120q3 24 12 24l4 340v1348q7 16 28 16h8q22 0 28 -16v-1544l-8 -28l-4 -216l4 -124l20 -100l32 -8q84 0 124 16h20q12 0 20 -40v-8q0 -17 -128 -32h-48q-72 11 -72 20l-16 68l-12 100v36q0 13 -12 28z" />
<glyph unicode="m" horiz-adv-x="1552" d="M0 936q18 44 24 44h8q53 -14 96 -104q20 -56 28 -136l4 -4q0 -12 8 -12h4q17 67 152 172l56 16q17 0 24 12l20 -4h4l28 4q0 -9 52 -24q77 -73 88 -164q4 -53 16 -88v-24l-4 -16l8 -32l-4 -24l4 -12h4q162 428 444 428h24q136 0 192 -168q24 -65 24 -124v-16l12 -16v-300 q0 -13 -12 -28v-20l-4 -136l4 -12l-12 -20v-116l-12 -12l-20 4l-12 -4q-16 6 -16 12v16q0 185 12 228v32q1 60 8 60l-4 28v228l4 24l-8 32v16l4 4q-12 13 -20 84q-8 0 -8 32q-56 104 -104 104q0 7 -20 8h-64q-99 -17 -192 -108q-103 -122 -192 -348q-8 0 -8 -36 q-10 -6 -32 -68q-64 0 -64 28q12 4 12 24v164q0 13 -12 28v56l4 4q-7 9 -12 56q-27 148 -104 148h-4q-65 0 -152 -76q-70 -110 -80 -176l-4 -4l-4 -12l4 -4v-4q-11 -18 -20 -92l-4 -4l-4 -176v-4q0 -13 -12 -28l-4 -216q-10 -48 -16 -48h-44l-8 8l4 160l8 36v124q1 48 8 48 l-4 20v24l12 48v160l-12 48v4l4 16q-37 208 -80 208l-4 4q-16 0 -16 16z" />
<glyph unicode="n" horiz-adv-x="995" d="M0 816v12l32 28h16q36 -40 88 -176q44 -166 44 -232h8v8h4l-4 20q0 20 8 20l-4 12q26 116 72 208q21 63 120 152q118 76 204 76l16 4h104q40 0 44 -52q11 0 24 -96q0 -23 12 -36v-44l-4 -16l8 -32v-132q0 -20 -8 -20l4 -20v-44q-11 0 -28 -328q-12 -19 -12 -52v-28l4 -24 q-8 -24 -16 -24h-36q-12 3 -12 32v68l8 44v52l8 32l4 120l8 24v44q1 28 8 28l-4 4v64l12 48v100l-12 48v24l4 16l-28 124q-4 12 -24 12h-4q-192 0 -276 -96q-70 -68 -96 -164q-16 -18 -40 -132l4 -12q-13 0 -20 -96l-4 -52l-4 -4l-4 -12l4 -4v-20q-16 -52 -16 -196l-8 -8 v-64l-12 -12h-48l-8 8v196q0 47 -8 64l4 36v16l-12 56v4l4 16q-8 16 -24 144q-51 205 -104 264z" />
<glyph unicode="o" horiz-adv-x="957" d="M0 356v144l8 36l-4 12q53 231 148 308q57 72 120 72q0 16 68 16q30 0 76 -16q57 -9 160 -112q77 -100 116 -208q20 -62 24 -100l20 -112v-60l-12 -16v-48l-4 -4l4 -4v-4q-12 -15 -12 -40q-40 -78 -56 -92q-52 -79 -188 -112q-49 -16 -100 -16h-68q-134 0 -232 140 q-28 31 -60 156l-4 4v4h4q-8 18 -8 52zM60 364q16 -92 36 -144q23 -59 100 -124l60 -28l4 4h4l20 -12h96q20 0 40 12l4 -4h4q133 34 188 112q37 42 56 180v16q-19 190 -60 256q-69 168 -200 232q-47 9 -64 20q0 -28 -96 -28q-105 -69 -144 -188q-24 -41 -24 -76 q-8 0 -16 -76q-7 0 -8 -28v-124z" />
<glyph unicode="p" horiz-adv-x="1070" d="M105 -2v44l16 16l-4 28v140l4 16q-8 16 -8 44v56l-8 12v220q8 6 8 44l8 12l-4 12q10 0 16 44q112 180 288 180q170 0 292 -108q104 -86 144 -184q36 -77 36 -148v-60q0 -171 -180 -280q-76 -40 -180 -64q-65 -16 -108 -16h-4l-8 -8l-160 -4h-64l-4 -4h-4l4 -28v-288 q0 -8 -12 -8v-60q0 -28 -28 -28t-28 40v336l4 16zM169 502l4 -232l12 -12v-180l-4 -20l4 -4h144l16 8l108 4q0 12 76 20q58 9 172 68q82 49 120 148l12 64v84q-8 9 -16 64l-36 72q-80 136 -256 208q-46 0 -60 12h-60q-8 -8 -60 -16q0 -5 -36 -16q-128 -82 -128 -168 q-12 0 -12 -104z" />
<glyph unicode="q" horiz-adv-x="1161" d="M22 270v64q35 157 128 280q22 64 184 208q113 64 184 64l4 4v4l20 -4h48q8 -8 56 -12q114 -42 148 -88l8 -12q-35 -40 -44 -40l4 -20l-20 -40l4 -12l-12 -8l-4 -100l4 -164l12 -12v-16l-4 -16q8 -17 8 -64l-4 -4l12 -24l16 -224l12 -20v-76l-12 -16v-220l-8 -12v-56 q18 0 88 64q111 96 128 96q24 0 28 -32q0 -14 -116 -104q-83 -76 -116 -80l-32 -8h-4q-32 0 -32 48l4 304q0 28 8 28l-4 20v12l4 16q-8 16 -8 44v44q-8 23 -16 124l-8 16l4 4v4q-20 141 -20 204l-72 -120q-141 -133 -280 -180q0 -6 -40 -12l-8 -8l-4 4l-4 -4h-112 q-132 39 -132 152zM82 286q0 -77 76 -104l4 -4h68q64 6 200 84q143 87 184 204l36 164q26 70 60 128h12l16 -12h8v8q-86 60 -120 60l-8 8l-64 4q-61 0 -76 -16l-4 4q-64 -19 -108 -48q-97 -80 -172 -196q-37 -52 -88 -176q-6 0 -24 -80v-28z" />
<glyph unicode="r" horiz-adv-x="852" d="M0 28v900l12 12h36l12 -12v-684h8q0 35 28 120q53 200 116 316q56 91 96 128q101 107 248 136q41 12 108 12h20q9 0 12 -52l-12 -8h-52l-96 -20q-111 -35 -196 -124q-84 -106 -108 -188q-16 0 -92 -276l-72 -256q-12 -32 -20 -32h-12q-36 0 -36 28z" />
<glyph unicode="s" horiz-adv-x="1024" d="M0 236q5 24 12 24h40q9 0 12 -28h-4q35 -92 96 -124q21 -21 156 -48h104q178 29 264 96q54 51 60 96q-7 53 -64 116q-57 44 -96 44l-12 -4l-12 12h-56l-32 -8h-100q-72 15 -80 32q-20 17 -40 56l4 4l-4 20v88l-4 16q18 105 64 168q102 108 220 108l12 4v4l40 -4h16l36 4 l36 -12q160 -5 160 -28l4 -16v-4l-16 -32h-8l-16 8q-75 0 -88 12h-44q-28 0 -28 8l-4 -4h-16q-152 0 -212 -48q-57 -34 -80 -124q-4 -52 -16 -52l4 -20v-40l-4 -16q18 -46 36 -64l60 -4l152 4q102 0 176 -76q54 -54 68 -112v-4h-4l12 -20v-8q-12 -74 -48 -116 q-89 -92 -196 -116q-86 -28 -184 -28h-48q-221 0 -312 168z" />
<glyph unicode="t" horiz-adv-x="927" d="M0 1064v8q0 22 16 28h172q13 0 28 -12h40l4 4h4l-4 220v236l4 268q8 0 8 12l4 136l12 12v12l4 64l-4 16l4 4q8 0 8 20l4 4h44q7 0 12 -20l-20 -152l4 -12q-16 -16 -16 -208l-8 -28v-476l8 -12v-92q0 -12 104 -12h96l12 -8h172q24 -2 24 -12v-40q0 -8 -12 -8l-364 4l-24 8 h-8l4 -88v-148q3 -24 12 -24l-4 -28v-476l20 -140q12 0 12 -28q17 -28 40 -32q26 0 100 80h16q36 -31 36 -44q-11 -1 -64 -60l-68 -40q-77 0 -112 60q-20 46 -24 80l-8 8l4 12q-4 72 -16 80v216l-4 520l-8 8v44l-160 4h-92q-12 3 -12 32z" />
<glyph unicode="u" horiz-adv-x="1070" d="M0 572v304l8 12v108l12 12h36l12 -8l-4 -300l4 -236l12 -12v-16l-4 -16q21 -123 44 -196q45 -119 120 -152q24 -1 24 -8l20 4h24l16 -4q68 19 120 48q58 18 136 160l40 96q14 57 28 76l-4 4v4q16 30 36 156q8 0 8 20v44l-32 116l-12 48l4 12q-16 0 -16 96v12l-8 32v4 l8 32v48l12 12q85 -77 100 -156l12 -60l4 -92l-4 -92l44 -172l12 -40l4 -52h-4l12 -20l4 -164l8 -16q0 -86 16 -112h-4l8 -24v-4q0 -32 -56 -32q-32 89 -32 256v16l-8 12v32l-8 56l4 16q-12 14 -20 76h-4q-11 -18 -24 -84q-57 -182 -128 -276q-70 -98 -196 -136l-60 -16h-52 q-73 8 -148 80q-46 72 -52 100q-24 38 -36 124l-12 16l4 20l-8 24l4 24q-16 0 -16 140v12z" />
<glyph unicode="v" horiz-adv-x="1168" d="M0 1036v4q0 22 48 28q19 0 180 -360q162 -400 312 -596l16 -12q217 320 288 532l20 52q32 88 48 224l4 36v64l-4 20q23 20 40 20h12l16 -16v-124l-12 -20l4 -28l-8 -32l4 -12q-11 -15 -24 -96q-69 -230 -200 -444l-136 -212q-33 -59 -48 -64q-57 44 -152 188l-64 108 q-128 264 -128 280l-108 244z" />
<glyph unicode="w" horiz-adv-x="1341" d="M0 460v140l12 16v124l4 168l24 12l4 -4h4l4 4h4q24 -8 24 -16v-72l-8 -12v-192q0 -40 -8 -40l4 -28v-68l-4 -36l8 -24v-92l20 -144l24 -80q13 0 64 72l184 232q140 172 168 172q76 -89 156 -260q22 -43 120 -140l56 -44h8q61 125 80 192q48 136 76 308q4 44 12 52l4 108 l12 12l4 208l-4 20l12 8h48l8 -8v-148l-8 -12v-76l-8 -32v-8l4 -16q-12 -20 -28 -184q-9 0 -20 -72q-36 -161 -112 -340q-57 -108 -68 -108q-75 42 -224 204q-39 59 -116 216l-24 28q-122 -130 -284 -344q-115 -156 -132 -156h-4q-37 58 -64 164q-15 92 -20 92l-4 120v36z " />
<glyph unicode="x" horiz-adv-x="1299" d="M0 60q0 10 158 155q82 78 363 316q0 18 -137 169l-81 92l-173 179v7q25 32 39 32q244 -245 391 -429l3 -4h4q200 180 278 282l88 112l24 28h11q17 0 35 -24q-41 -66 -134 -176q-85 -97 -264 -268v-3l130 -162l117 -176l70 -88q63 -42 77 -42l25 -14v-7l-4 -4l4 -3v-7 l-21 -25h-4q-52 0 -158 109q-47 58 -144 215l-64 81l-73 84h-4l-366 -320l-81 -78l-74 -66h-3q-32 16 -32 35z" />
<glyph unicode="y" horiz-adv-x="973" d="M23 627v392q0 76 16 76h40q12 -4 12 -24l-12 -40l-4 -296l4 -208q13 0 16 -112l-4 -20q16 0 16 -72q7 0 28 -112l56 -112q68 -72 112 -72h4q192 0 264 212q16 17 16 52q12 0 12 40q12 0 12 32l8 28l4 12h4l-4 4q5 68 16 68l4 108v24l12 16l-4 20q0 83 16 136l32 192v40 l8 32v80l24 16l8 8h8q8 0 16 -24l-4 -260l-12 -8l4 -4v-4l-4 -192l-12 -28l-4 -180l-8 -24l-4 -264l4 -220l8 -8v-40l-16 -16l4 -4v-52q0 -12 -28 -52q0 -18 -28 -52q-55 -88 -112 -88q-2 -12 -32 -12h-184q-93 16 -148 36q-80 70 -80 92q0 24 28 24q17 -4 36 -28 q33 -44 88 -44l72 -24l28 4h140q108 18 108 60l4 4l-4 24q0 16 24 40v32q15 87 36 132v76l-12 16v168l4 36l-4 12h-8v-12q-49 -152 -140 -232q-80 -56 -136 -56l-8 -8h-76q-113 38 -132 88q-45 36 -88 180q-32 147 -32 176l4 4v4q-5 20 -12 20z" />
<glyph unicode="z" horiz-adv-x="1168" d="M0 956v40q0 8 12 8l564 -4l4 4h4l36 -12h4q185 0 228 -12h32l12 -12q-125 -105 -152 -180q-18 -18 -72 -120q-127 -193 -288 -360l-220 -236v-8h780l28 4l4 -4v-56l-8 -8h-904q-13 5 -24 36q0 26 60 60l84 88l40 48q234 236 312 356q56 68 104 156q74 131 112 172v8 l-28 8l-336 4h-96l-12 8h-256q-21 0 -24 12z" />
<glyph unicode="{" horiz-adv-x="633" d="M0 939v4q224 49 224 78q36 25 36 79v6q0 50 -104 131q-56 75 -56 157q0 206 244 406q75 46 84 46q24 -24 24 -39v-4q-85 -30 -188 -147q-108 -145 -108 -262q0 -105 100 -180q60 -51 60 -104v-14q0 -125 -188 -170h-4q136 -94 136 -281q0 -46 -48 -367v-42 q0 -190 124 -190l28 3l12 -42l-40 -7q-154 0 -176 187l-4 49v3q0 72 44 350l4 62q0 203 -184 275z" />
<glyph unicode="|" horiz-adv-x="249" d="M0 1480v273l4 97l4 4h44l4 -4h4l-4 -97v-266l32 -1455v-28l-4 -4h-44l-8 7z" />
<glyph unicode="}" horiz-adv-x="684" d="M0 1814q50 25 96 25h12q158 0 204 -269q12 -79 12 -163v-19l-8 -226v-25q0 -183 184 -241q32 -6 32 -13v-3l-64 -25v-40q0 -222 92 -414q36 -81 36 -154q0 -136 -228 -225q-80 -22 -140 -22q-94 0 -160 47q24 28 36 28q61 -31 132 -31q157 0 276 125q28 47 28 85 q0 71 -96 294q-32 150 -32 267v62l4 3v3q-156 75 -156 254v32l8 209v35q0 299 -124 376l-32 6h-20q-25 0 -64 -19q-28 29 -28 38z" />
<glyph unicode="~" horiz-adv-x="882" d="M38 1286v40q0 109 124 156l36 4h8q96 0 208 -164q83 -68 148 -68q68 11 68 64v12q0 47 -68 120v4l36 36q88 -81 88 -176q0 -96 -128 -116q-133 0 -272 196q-39 36 -84 36q-108 -15 -108 -100v-32q0 -16 -52 -16z" />
<glyph unicode="&#xaa;" d="M0 220v180l52 128q45 90 144 204q114 112 232 156q44 7 44 16h8v-4l48 4q61 0 116 -28h8l48 60l12 -12v-32l-4 -16l12 -32v-36l-8 -32v-64q0 -47 -8 -64l4 -24v-16l-12 -36l-4 -204v-52q0 -118 20 -172h-4l44 -116q-29 -28 -56 -28q-60 135 -60 216v4l-8 12v48h-12 q-22 -58 -120 -140q-11 -13 -88 -56q-4 -10 -100 -40l-32 -8h-88q-47 14 -92 44q-69 64 -88 132zM60 264q0 -58 84 -140q48 -24 68 -24h28q90 0 168 60q66 30 140 128q52 70 52 212v204l12 20l-4 4v4q0 37 16 80q-30 22 -80 28l-4 4h-16q-72 -12 -132 -40 q-199 -130 -276 -296q-26 -43 -56 -156v-88z" />
<glyph unicode="&#xad;" horiz-adv-x="754" d="M15 558v40l8 8h512l8 -8v-40l-8 -8h-512z" />
<glyph unicode="&#xb2;" horiz-adv-x="1139" d="M0 1096q121 124 312 124h28q246 0 292 -400v-40q0 -298 -384 -636q-80 -49 -80 -56h8l644 -32l4 -4v-44l-8 -8l-744 36h-20l-12 52q81 32 188 112q348 311 348 584q0 254 -152 364q-38 16 -76 16h-36q-155 0 -272 -100z" />
<glyph unicode="&#xb3;" horiz-adv-x="837" d="M0 136v16q0 8 12 8q48 0 48 -40q68 -64 220 -64h12q139 0 280 176q36 62 36 116v20q0 141 -168 232q0 24 -284 32l-76 16v4q66 54 256 164q152 103 152 184q0 52 -84 84q-37 16 -92 16h-40q-138 0 -216 -84q-44 20 -44 28q84 112 264 112h32q161 0 220 -104 q16 -33 16 -60q0 -135 -316 -304v-4h12q243 0 324 -104q100 -97 100 -220v-16q0 -182 -268 -324q-64 -20 -112 -20h-4q-226 0 -276 116z" />
<glyph unicode="&#xb9;" horiz-adv-x="241" d="M0 1044v16l8 8h40l8 -8v-16l12 -1040l-4 -4h-44q-8 0 -8 12z" />
<glyph unicode="&#xba;" horiz-adv-x="957" d="M0 356v144l8 36l-4 12q53 231 148 308q57 72 120 72q0 16 68 16q30 0 76 -16q57 -9 160 -112q77 -100 116 -208q20 -62 24 -100l20 -112v-60l-12 -16v-48l-4 -4l4 -4v-4q-12 -15 -12 -40q-40 -78 -56 -92q-52 -79 -188 -112q-49 -16 -100 -16h-68q-134 0 -232 140 q-28 31 -60 156l-4 4v4h4q-8 18 -8 52zM60 364q16 -92 36 -144q23 -59 100 -124l60 -28l4 4h4l20 -12h96q20 0 40 12l4 -4h4q133 34 188 112q37 42 56 180v16q-19 190 -60 256q-69 168 -200 232q-47 9 -64 20q0 -28 -96 -28q-105 -69 -144 -188q-24 -41 -24 -76 q-8 0 -16 -76q-7 0 -8 -28v-124z" />
<glyph unicode="&#xc0;" horiz-adv-x="1146" d="M326 1813l43 54q72 -81 103 -81q0 -71 59 -172v-6q0 -14 -65 -32h-5l-60 156q-30 14 -75 81zM7 35l21 89q0 17 45 122q27 107 78 228l40 143l35 105q0 34 19 73l75 244q19 43 62 215q32 155 46 155q11 45 39 45h15q32 -21 32 -45q62 -163 73 -210q20 -28 35 -85 q25 -63 39 -141q49 -168 84 -235l7 -48q11 -26 33 -105q9 -18 21 -68q65 -179 91 -288l43 -130q14 -14 14 -46q-5 -36 -29 -36q-34 0 -50 96q-22 74 -39 116l-22 94q-14 28 -39 107q-14 20 -40 135q-12 23 -39 116q-23 25 -105 25q-112 14 -173 14q-36 -12 -62 -12h-56 q-24 0 -42 -80q-6 -10 -38 -130l-34 -100q-14 -16 -35 -105q-19 -48 -35 -109q-12 -23 -22 -61q-23 -20 -34 -97l-16 -22q-37 0 -37 31zM308 788q0 -7 12 -13l127 11h29l9 2q95 -16 164 -16q6 0 14 14l-43 121l-21 80q0 42 -76 234q-27 99 -48 138h-8q-29 -96 -29 -110 q-14 -70 -74 -258q-5 -8 -19 -73q-6 -11 -37 -130z" />
<glyph unicode="&#xc2;" horiz-adv-x="1146" d="M234 1596q0 66 288 308q37 -38 116 -216l48 -56v-4l-32 -36q-92 90 -124 200l-20 28q-186 -152 -228 -244h-4q-44 12 -44 20zM7 35l21 89q0 17 45 122q27 107 78 228l40 143l35 105q0 34 19 73l75 244q19 43 62 215q32 155 46 155q11 45 39 45h15q32 -21 32 -45 q62 -163 73 -210q20 -28 35 -85q25 -63 39 -141q49 -168 84 -235l7 -48q11 -26 33 -105q9 -18 21 -68q65 -179 91 -288l43 -130q14 -14 14 -46q-5 -36 -29 -36q-34 0 -50 96q-22 74 -39 116l-22 94q-14 28 -39 107q-14 20 -40 135q-12 23 -39 116q-23 25 -105 25 q-112 14 -173 14q-36 -12 -62 -12h-56q-24 0 -42 -80q-6 -10 -38 -130l-34 -100q-14 -16 -35 -105q-19 -48 -35 -109q-12 -23 -22 -61q-23 -20 -34 -97l-16 -22q-37 0 -37 31zM308 788q0 -7 12 -13l127 11h29l9 2q95 -16 164 -16q6 0 14 14l-43 121l-21 80q0 42 -76 234 q-27 99 -48 138h-8q-29 -96 -29 -110q-14 -70 -74 -258q-5 -8 -19 -73q-6 -11 -37 -130z" />
<glyph unicode="&#xc3;" horiz-adv-x="1146" d="M131 1664v40q0 109 124 156l36 4h8q96 0 208 -164q83 -68 148 -68q68 11 68 64v12q0 47 -68 120v4l36 36q88 -81 88 -176q0 -96 -128 -116q-133 0 -272 196q-39 36 -84 36q-108 -15 -108 -100v-32q0 -16 -52 -16zM7 35l21 89q0 17 45 122q27 107 78 228l40 143l35 105 q0 34 19 73l75 244q19 43 62 215q32 155 46 155q11 45 39 45h15q32 -21 32 -45q62 -163 73 -210q20 -28 35 -85q25 -63 39 -141q49 -168 84 -235l7 -48q11 -26 33 -105q9 -18 21 -68q65 -179 91 -288l43 -130q14 -14 14 -46q-5 -36 -29 -36q-34 0 -50 96q-22 74 -39 116 l-22 94q-14 28 -39 107q-14 20 -40 135q-12 23 -39 116q-23 25 -105 25q-112 14 -173 14q-36 -12 -62 -12h-56q-24 0 -42 -80q-6 -10 -38 -130l-34 -100q-14 -16 -35 -105q-19 -48 -35 -109q-12 -23 -22 -61q-23 -20 -34 -97l-16 -22q-37 0 -37 31zM308 788q0 -7 12 -13 l127 11h29l9 2q95 -16 164 -16q6 0 14 14l-43 121l-21 80q0 42 -76 234q-27 99 -48 138h-8q-29 -96 -29 -110q-14 -70 -74 -258q-5 -8 -19 -73q-6 -11 -37 -130z" />
<glyph unicode="&#xc8;" horiz-adv-x="1172" d="M-100 1907l43 54q72 -81 103 -81q0 -71 59 -172v-6q0 -14 -65 -32h-5l-60 156q-30 14 -75 81zM0 80v40l28 1292v88q0 8 12 8v32l8 8l692 -4l4 -4v-44q0 -8 -12 -8l-648 4v-60q0 -322 -12 -608h544l8 -8v-40l-8 -8h-544q-16 -336 -16 -648v-20h4l632 -44h48l220 4l4 -4 v-44l-8 -8l-224 -4q-83 0 -640 44h-68l-8 8v20q-16 0 -16 8z" />
<glyph unicode="&#xca;" horiz-adv-x="1172" d="M-192 1690q0 66 288 308q37 -38 116 -216l48 -56v-4l-32 -36q-92 90 -124 200l-20 28q-186 -152 -228 -244h-4q-44 12 -44 20zM0 80v40l28 1292v88q0 8 12 8v32l8 8l692 -4l4 -4v-44q0 -8 -12 -8l-648 4v-60q0 -322 -12 -608h544l8 -8v-40l-8 -8h-544q-16 -336 -16 -648 v-20h4l632 -44h48l220 4l4 -4v-44l-8 -8l-224 -4q-83 0 -640 44h-68l-8 8v20q-16 0 -16 8z" />
<glyph unicode="&#xcc;" horiz-adv-x="339" d="M-120 1867l43 54q72 -81 103 -81q0 -71 59 -172v-6q0 -14 -65 -32h-5l-60 156q-30 14 -75 81zM0 1432v68l8 8h40l8 -8v-68q0 -316 60 -848q8 -64 8 -176v-400l-8 -8h-40l-8 8v412q0 118 -56 668q-12 154 -12 344z" />
<glyph unicode="&#xce;" horiz-adv-x="339" d="M-212 1650q0 66 288 308q37 -38 116 -216l48 -56v-4l-32 -36q-92 90 -124 200l-20 28q-186 -152 -228 -244h-4q-44 12 -44 20zM0 1432v68l8 8h40l8 -8v-68q0 -316 60 -848q8 -64 8 -176v-400l-8 -8h-40l-8 8v412q0 118 -56 668q-12 154 -12 344z" />
<glyph unicode="&#xd1;" horiz-adv-x="1138" d="M-306 1686v40q0 109 124 156l36 4h8q96 0 208 -164q83 -68 148 -68q68 11 68 64v12q0 47 -68 120v4l36 36q88 -81 88 -176q0 -96 -128 -116q-133 0 -272 196q-39 36 -84 36q-108 -15 -108 -100v-32q0 -16 -52 -16zM0 1436v12l8 8l4 16l4 4h44q8 0 8 -12q0 -128 36 -176 q15 -54 364 -520q419 -494 420 -588h4v12q-52 340 -52 432l-8 528q18 212 28 212h40l8 -8l-20 -204q0 -696 44 -836q16 -78 16 -148v-44q0 -41 -28 -124h-4q-47 48 -84 176q-22 104 -456 620q-123 163 -288 404v-4q24 -185 24 -332v-836l-8 -8h-40l-8 8v836q0 191 -48 524 q-7 0 -8 48z" />
<glyph unicode="&#xd2;" horiz-adv-x="1394" d="M364 1707l43 54q72 -81 103 -81q0 -71 59 -172v-6q0 -14 -65 -32h-5l-60 156q-30 14 -75 81zM0 604v28q0 261 196 500q127 130 240 160l28 4v44l8 8h80q313 0 468 -208q139 -157 188 -328q28 -139 28 -332q0 -343 -236 -444q-106 -36 -208 -36q-319 0 -636 248 q-156 149 -156 356zM56 596q0 -364 580 -524q105 -16 164 -16q380 0 380 424q0 320 -76 444q-199 368 -504 368q-4 -40 -12 -40h-40q-274 0 -448 -384q-44 -132 -44 -232v-40z" />
<glyph unicode="&#xd4;" horiz-adv-x="1394" d="M272 1490q0 66 288 308q37 -38 116 -216l48 -56v-4l-32 -36q-92 90 -124 200l-20 28q-186 -152 -228 -244h-4q-44 12 -44 20zM0 604v28q0 261 196 500q127 130 240 160l28 4v44l8 8h80q313 0 468 -208q139 -157 188 -328q28 -139 28 -332q0 -343 -236 -444 q-106 -36 -208 -36q-319 0 -636 248q-156 149 -156 356zM56 596q0 -364 580 -524q105 -16 164 -16q380 0 380 424q0 320 -76 444q-199 368 -504 368q-4 -40 -12 -40h-40q-274 0 -448 -384q-44 -132 -44 -232v-40z" />
<glyph unicode="&#xd5;" horiz-adv-x="1394" d="M168 1558v40q0 109 124 156l36 4h8q96 0 208 -164q83 -68 148 -68q68 11 68 64v12q0 47 -68 120v4l36 36q88 -81 88 -176q0 -96 -128 -116q-133 0 -272 196q-39 36 -84 36q-108 -15 -108 -100v-32q0 -16 -52 -16zM0 604v28q0 261 196 500q127 130 240 160l28 4v44l8 8h80 q313 0 468 -208q139 -157 188 -328q28 -139 28 -332q0 -343 -236 -444q-106 -36 -208 -36q-319 0 -636 248q-156 149 -156 356zM56 596q0 -364 580 -524q105 -16 164 -16q380 0 380 424q0 320 -76 444q-199 368 -504 368q-4 -40 -12 -40h-40q-274 0 -448 -384 q-44 -132 -44 -232v-40z" />
<glyph unicode="&#xd9;" horiz-adv-x="961" d="M-123 1707l43 54q72 -81 103 -81q0 -71 59 -172v-6q0 -14 -65 -32h-5l-60 156q-30 14 -75 81zM0 664v28l8 524l8 8h40l8 -8l-8 -524v-44q0 -410 204 -512q122 -80 196 -80q103 0 228 320q24 128 24 212q0 65 -56 588v40l4 4h44q8 0 8 -12q0 -56 56 -584v-40 q0 -310 -212 -548q-58 -36 -96 -36q-136 0 -328 172q-128 139 -128 492z" />
<glyph unicode="&#xdb;" horiz-adv-x="961" d="M-215 1490q0 66 288 308q37 -38 116 -216l48 -56v-4l-32 -36q-92 90 -124 200l-20 28q-186 -152 -228 -244h-4q-44 12 -44 20zM0 664v28l8 524l8 8h40l8 -8l-8 -524v-44q0 -410 204 -512q122 -80 196 -80q103 0 228 320q24 128 24 212q0 65 -56 588v40l4 4h44q8 0 8 -12 q0 -56 56 -584v-40q0 -310 -212 -548q-58 -36 -96 -36q-136 0 -328 172q-128 139 -128 492z" />
<glyph unicode="&#xe0;" d="M551 1303l43 54q72 -81 103 -81q0 -71 59 -172v-6q0 -14 -65 -32h-5l-60 156q-30 14 -75 81zM0 220v180l52 128q45 90 144 204q114 112 232 156q44 7 44 16h8v-4l48 4q61 0 116 -28h8l48 60l12 -12v-32l-4 -16l12 -32v-36l-8 -32v-64q0 -47 -8 -64l4 -24v-16l-12 -36 l-4 -204v-52q0 -118 20 -172h-4l44 -116q-29 -28 -56 -28q-60 135 -60 216v4l-8 12v48h-12q-22 -58 -120 -140q-11 -13 -88 -56q-4 -10 -100 -40l-32 -8h-88q-47 14 -92 44q-69 64 -88 132zM60 264q0 -58 84 -140q48 -24 68 -24h28q90 0 168 60q66 30 140 128q52 70 52 212 v204l12 20l-4 4v4q0 37 16 80q-30 22 -80 28l-4 4h-16q-72 -12 -132 -40q-199 -130 -276 -296q-26 -43 -56 -156v-88z" />
<glyph unicode="&#xe2;" d="M459 1086q0 66 288 308q37 -38 116 -216l48 -56v-4l-32 -36q-92 90 -124 200l-20 28q-186 -152 -228 -244h-4q-44 12 -44 20zM0 220v180l52 128q45 90 144 204q114 112 232 156q44 7 44 16h8v-4l48 4q61 0 116 -28h8l48 60l12 -12v-32l-4 -16l12 -32v-36l-8 -32v-64 q0 -47 -8 -64l4 -24v-16l-12 -36l-4 -204v-52q0 -118 20 -172h-4l44 -116q-29 -28 -56 -28q-60 135 -60 216v4l-8 12v48h-12q-22 -58 -120 -140q-11 -13 -88 -56q-4 -10 -100 -40l-32 -8h-88q-47 14 -92 44q-69 64 -88 132zM60 264q0 -58 84 -140q48 -24 68 -24h28 q90 0 168 60q66 30 140 128q52 70 52 212v204l12 20l-4 4v4q0 37 16 80q-30 22 -80 28l-4 4h-16q-72 -12 -132 -40q-199 -130 -276 -296q-26 -43 -56 -156v-88z" />
<glyph unicode="&#xe3;" d="M355 1154v40q0 109 124 156l36 4h8q96 0 208 -164q83 -68 148 -68q68 11 68 64v12q0 47 -68 120v4l36 36q88 -81 88 -176q0 -96 -128 -116q-133 0 -272 196q-39 36 -84 36q-108 -15 -108 -100v-32q0 -16 -52 -16zM0 220v180l52 128q45 90 144 204q114 112 232 156 q44 7 44 16h8v-4l48 4q61 0 116 -28h8l48 60l12 -12v-32l-4 -16l12 -32v-36l-8 -32v-64q0 -47 -8 -64l4 -24v-16l-12 -36l-4 -204v-52q0 -118 20 -172h-4l44 -116q-29 -28 -56 -28q-60 135 -60 216v4l-8 12v48h-12q-22 -58 -120 -140q-11 -13 -88 -56q-4 -10 -100 -40 l-32 -8h-88q-47 14 -92 44q-69 64 -88 132zM60 264q0 -58 84 -140q48 -24 68 -24h28q90 0 168 60q66 30 140 128q52 70 52 212v204l12 20l-4 4v4q0 37 16 80q-30 22 -80 28l-4 4h-16q-72 -12 -132 -40q-199 -130 -276 -296q-26 -43 -56 -156v-88z" />
<glyph unicode="&#xe8;" horiz-adv-x="972" d="M329 1303l43 54q72 -81 103 -81q0 -71 59 -172v-6q0 -14 -65 -32h-5l-60 156q-30 14 -75 81zM0 280v24q0 280 284 468q121 72 180 72h44q80 -20 80 -80l8 -32v-52q-7 -62 -68 -128q-81 -78 -224 -144q-103 -40 -160 -52v-4l-20 4h-28q-7 0 -12 20q0 44 28 44q44 0 136 32 q12 12 68 28l80 48q136 85 136 180q-6 76 -32 76h-44q-11 -12 -44 -12q-5 -10 -92 -52l-84 -64q-119 -91 -168 -280l-8 -44v-68l28 -84q46 -64 96 -84q47 -28 136 -28q122 0 248 68q136 85 152 144l24 8h4q36 -20 36 -32q-41 -73 -140 -148q-42 -28 -132 -68l-104 -28h-32 q-15 -12 -28 -12h-52l-100 20q-118 43 -168 140q-28 61 -28 120z" />
<glyph unicode="&#xea;" horiz-adv-x="972" d="M237 1086q0 66 288 308q37 -38 116 -216l48 -56v-4l-32 -36q-92 90 -124 200l-20 28q-186 -152 -228 -244h-4q-44 12 -44 20zM0 280v24q0 280 284 468q121 72 180 72h44q80 -20 80 -80l8 -32v-52q-7 -62 -68 -128q-81 -78 -224 -144q-103 -40 -160 -52v-4l-20 4h-28 q-7 0 -12 20q0 44 28 44q44 0 136 32q12 12 68 28l80 48q136 85 136 180q-6 76 -32 76h-44q-11 -12 -44 -12q-5 -10 -92 -52l-84 -64q-119 -91 -168 -280l-8 -44v-68l28 -84q46 -64 96 -84q47 -28 136 -28q122 0 248 68q136 85 152 144l24 8h4q36 -20 36 -32 q-41 -73 -140 -148q-42 -28 -132 -68l-104 -28h-32q-15 -12 -28 -12h-52l-100 20q-118 43 -168 140q-28 61 -28 120z" />
<glyph unicode="&#xec;" horiz-adv-x="678" d="M280 1839l43 54q72 -81 103 -81q0 -71 59 -172v-6q0 -14 -65 -32h-5l-60 156q-30 14 -75 81zM0 1348q9 62 32 88l28 16h40q58 -20 144 -140q50 123 124 156l36 12h48q13 0 60 -60v-48q-38 -160 -192 -284l-20 4q-24 -12 -60 -68l-4 -4h-12q-105 47 -152 136 q-39 46 -64 140zM64 1348q0 -111 136 -244h16q41 41 96 76l64 56q72 107 72 144v28l-28 8q-67 0 -140 -176q-31 -51 -56 -72h-4l-8 8v32q-20 99 -120 176h-12q-9 0 -16 -36zM244 780v36l12 12h40l12 -8l4 -108v-64l12 -16l-4 -20v-8l8 -76v-20l-4 -4l12 -20l4 -156l8 -8 v-132l-20 -68v-108l-12 -12h-40l-12 12v104l8 44v24l-4 28q12 0 16 68l-4 112q0 21 -12 24l4 32l-8 76l4 4v4l-12 32l-4 176v28z" />
<glyph unicode="&#xee;" horiz-adv-x="678" d="M188 1622q0 66 288 308q37 -38 116 -216l48 -56v-4l-32 -36q-92 90 -124 200l-20 28q-186 -152 -228 -244h-4q-44 12 -44 20zM0 1348q9 62 32 88l28 16h40q58 -20 144 -140q50 123 124 156l36 12h48q13 0 60 -60v-48q-38 -160 -192 -284l-20 4q-24 -12 -60 -68l-4 -4h-12 q-105 47 -152 136q-39 46 -64 140zM64 1348q0 -111 136 -244h16q41 41 96 76l64 56q72 107 72 144v28l-28 8q-67 0 -140 -176q-31 -51 -56 -72h-4l-8 8v32q-20 99 -120 176h-12q-9 0 -16 -36zM244 780v36l12 12h40l12 -8l4 -108v-64l12 -16l-4 -20v-8l8 -76v-20l-4 -4 l12 -20l4 -156l8 -8v-132l-20 -68v-108l-12 -12h-40l-12 12v104l8 44v24l-4 28q12 0 16 68l-4 112q0 21 -12 24l4 32l-8 76l4 4v4l-12 32l-4 176v28z" />
<glyph unicode="&#xf1;" horiz-adv-x="995" d="M36 1158v40q0 109 124 156l36 4h8q96 0 208 -164q83 -68 148 -68q68 11 68 64v12q0 47 -68 120v4l36 36q88 -81 88 -176q0 -96 -128 -116q-133 0 -272 196q-39 36 -84 36q-108 -15 -108 -100v-32q0 -16 -52 -16zM0 816v12l32 28h16q36 -40 88 -176q44 -166 44 -232h8v8h4 l-4 20q0 20 8 20l-4 12q26 116 72 208q21 63 120 152q118 76 204 76l16 4h104q40 0 44 -52q11 0 24 -96q0 -23 12 -36v-44l-4 -16l8 -32v-132q0 -20 -8 -20l4 -20v-44q-11 0 -28 -328q-12 -19 -12 -52v-28l4 -24q-8 -24 -16 -24h-36q-12 3 -12 32v68l8 44v52l8 32l4 120 l8 24v44q1 28 8 28l-4 4v64l12 48v100l-12 48v24l4 16l-28 124q-4 12 -24 12h-4q-192 0 -276 -96q-70 -68 -96 -164q-16 -18 -40 -132l4 -12q-13 0 -20 -96l-4 -52l-4 -4l-4 -12l4 -4v-20q-16 -52 -16 -196l-8 -8v-64l-12 -12h-48l-8 8v196q0 47 -8 64l4 36v16l-12 56v4 l4 16q-8 16 -24 144q-51 205 -104 264z" />
<glyph unicode="&#xf2;" horiz-adv-x="957" d="M192 1303l43 54q72 -81 103 -81q0 -71 59 -172v-6q0 -14 -65 -32h-5l-60 156q-30 14 -75 81zM0 356v144l8 36l-4 12q53 231 148 308q57 72 120 72q0 16 68 16q30 0 76 -16q57 -9 160 -112q77 -100 116 -208q20 -62 24 -100l20 -112v-60l-12 -16v-48l-4 -4l4 -4v-4 q-12 -15 -12 -40q-40 -78 -56 -92q-52 -79 -188 -112q-49 -16 -100 -16h-68q-134 0 -232 140q-28 31 -60 156l-4 4v4h4q-8 18 -8 52zM60 364q16 -92 36 -144q23 -59 100 -124l60 -28l4 4h4l20 -12h96q20 0 40 12l4 -4h4q133 34 188 112q37 42 56 180v16q-19 190 -60 256 q-69 168 -200 232q-47 9 -64 20q0 -28 -96 -28q-105 -69 -144 -188q-24 -41 -24 -76q-8 0 -16 -76q-7 0 -8 -28v-124z" />
<glyph unicode="&#xf4;" horiz-adv-x="957" d="M100 1086q0 66 288 308q37 -38 116 -216l48 -56v-4l-32 -36q-92 90 -124 200l-20 28q-186 -152 -228 -244h-4q-44 12 -44 20zM0 356v144l8 36l-4 12q53 231 148 308q57 72 120 72q0 16 68 16q30 0 76 -16q57 -9 160 -112q77 -100 116 -208q20 -62 24 -100l20 -112v-60 l-12 -16v-48l-4 -4l4 -4v-4q-12 -15 -12 -40q-40 -78 -56 -92q-52 -79 -188 -112q-49 -16 -100 -16h-68q-134 0 -232 140q-28 31 -60 156l-4 4v4h4q-8 18 -8 52zM60 364q16 -92 36 -144q23 -59 100 -124l60 -28l4 4h4l20 -12h96q20 0 40 12l4 -4h4q133 34 188 112 q37 42 56 180v16q-19 190 -60 256q-69 168 -200 232q-47 9 -64 20q0 -28 -96 -28q-105 -69 -144 -188q-24 -41 -24 -76q-8 0 -16 -76q-7 0 -8 -28v-124z" />
<glyph unicode="&#xf5;" horiz-adv-x="957" d="M-4 1154v40q0 109 124 156l36 4h8q96 0 208 -164q83 -68 148 -68q68 11 68 64v12q0 47 -68 120v4l36 36q88 -81 88 -176q0 -96 -128 -116q-133 0 -272 196q-39 36 -84 36q-108 -15 -108 -100v-32q0 -16 -52 -16zM0 356v144l8 36l-4 12q53 231 148 308q57 72 120 72 q0 16 68 16q30 0 76 -16q57 -9 160 -112q77 -100 116 -208q20 -62 24 -100l20 -112v-60l-12 -16v-48l-4 -4l4 -4v-4q-12 -15 -12 -40q-40 -78 -56 -92q-52 -79 -188 -112q-49 -16 -100 -16h-68q-134 0 -232 140q-28 31 -60 156l-4 4v4h4q-8 18 -8 52zM60 364q16 -92 36 -144 q23 -59 100 -124l60 -28l4 4h4l20 -12h96q20 0 40 12l4 -4h4q133 34 188 112q37 42 56 180v16q-19 190 -60 256q-69 168 -200 232q-47 9 -64 20q0 -28 -96 -28q-105 -69 -144 -188q-24 -41 -24 -76q-8 0 -16 -76q-7 0 -8 -28v-124z" />
<glyph unicode="&#xf9;" horiz-adv-x="1070" d="M496 1443l43 54q72 -81 103 -81q0 -71 59 -172v-6q0 -14 -65 -32h-5l-60 156q-30 14 -75 81zM0 572v304l8 12v108l12 12h36l12 -8l-4 -300l4 -236l12 -12v-16l-4 -16q21 -123 44 -196q45 -119 120 -152q24 -1 24 -8l20 4h24l16 -4q68 19 120 48q58 18 136 160l40 96 q14 57 28 76l-4 4v4q16 30 36 156q8 0 8 20v44l-32 116l-12 48l4 12q-16 0 -16 96v12l-8 32v4l8 32v48l12 12q85 -77 100 -156l12 -60l4 -92l-4 -92l44 -172l12 -40l4 -52h-4l12 -20l4 -164l8 -16q0 -86 16 -112h-4l8 -24v-4q0 -32 -56 -32q-32 89 -32 256v16l-8 12v32 l-8 56l4 16q-12 14 -20 76h-4q-11 -18 -24 -84q-57 -182 -128 -276q-70 -98 -196 -136l-60 -16h-52q-73 8 -148 80q-46 72 -52 100q-24 38 -36 124l-12 16l4 20l-8 24l4 24q-16 0 -16 140v12z" />
<glyph unicode="&#xfb;" horiz-adv-x="1070" d="M404 1226q0 66 288 308q37 -38 116 -216l48 -56v-4l-32 -36q-92 90 -124 200l-20 28q-186 -152 -228 -244h-4q-44 12 -44 20zM0 572v304l8 12v108l12 12h36l12 -8l-4 -300l4 -236l12 -12v-16l-4 -16q21 -123 44 -196q45 -119 120 -152q24 -1 24 -8l20 4h24l16 -4 q68 19 120 48q58 18 136 160l40 96q14 57 28 76l-4 4v4q16 30 36 156q8 0 8 20v44l-32 116l-12 48l4 12q-16 0 -16 96v12l-8 32v4l8 32v48l12 12q85 -77 100 -156l12 -60l4 -92l-4 -92l44 -172l12 -40l4 -52h-4l12 -20l4 -164l8 -16q0 -86 16 -112h-4l8 -24v-4 q0 -32 -56 -32q-32 89 -32 256v16l-8 12v32l-8 56l4 16q-12 14 -20 76h-4q-11 -18 -24 -84q-57 -182 -128 -276q-70 -98 -196 -136l-60 -16h-52q-73 8 -148 80q-46 72 -52 100q-24 38 -36 124l-12 16l4 20l-8 24l4 24q-16 0 -16 140v12z" />
<glyph unicode="&#x152;" horiz-adv-x="2566" d="M1394 80v40l28 1292v88q0 8 12 8v32l8 8l692 -4l4 -4v-44q0 -8 -12 -8l-648 4v-60q0 -322 -12 -608h544l8 -8v-40l-8 -8h-544q-16 -336 -16 -648v-20h4l632 -44h48l220 4l4 -4v-44l-8 -8l-224 -4q-83 0 -640 44h-68l-8 8v20q-16 0 -16 8zM0 604v28q0 261 196 500 q127 130 240 160l28 4v44l8 8h80q313 0 468 -208q139 -157 188 -328q28 -139 28 -332q0 -343 -236 -444q-106 -36 -208 -36q-319 0 -636 248q-156 149 -156 356zM56 596q0 -364 580 -524q105 -16 164 -16q380 0 380 424q0 320 -76 444q-199 368 -504 368q-4 -40 -12 -40h-40 q-274 0 -448 -384q-44 -132 -44 -232v-40z" />
<glyph unicode="&#x153;" horiz-adv-x="1929" d="M957 280v24q0 280 284 468q121 72 180 72h44q80 -20 80 -80l8 -32v-52q-7 -62 -68 -128q-81 -78 -224 -144q-103 -40 -160 -52v-4l-20 4h-28q-7 0 -12 20q0 44 28 44q44 0 136 32q12 12 68 28l80 48q136 85 136 180q-6 76 -32 76h-44q-11 -12 -44 -12q-5 -10 -92 -52 l-84 -64q-119 -91 -168 -280l-8 -44v-68l28 -84q46 -64 96 -84q47 -28 136 -28q122 0 248 68q136 85 152 144l24 8h4q36 -20 36 -32q-41 -73 -140 -148q-42 -28 -132 -68l-104 -28h-32q-15 -12 -28 -12h-52l-100 20q-118 43 -168 140q-28 61 -28 120zM0 356v144l8 36l-4 12 q53 231 148 308q57 72 120 72q0 16 68 16q30 0 76 -16q57 -9 160 -112q77 -100 116 -208q20 -62 24 -100l20 -112v-60l-12 -16v-48l-4 -4l4 -4v-4q-12 -15 -12 -40q-40 -78 -56 -92q-52 -79 -188 -112q-49 -16 -100 -16h-68q-134 0 -232 140q-28 31 -60 156l-4 4v4h4 q-8 18 -8 52zM60 364q16 -92 36 -144q23 -59 100 -124l60 -28l4 4h4l20 -12h96q20 0 40 12l4 -4h4q133 34 188 112q37 42 56 180v16q-19 190 -60 256q-69 168 -200 232q-47 9 -64 20q0 -28 -96 -28q-105 -69 -144 -188q-24 -41 -24 -76q-8 0 -16 -76q-7 0 -8 -28v-124z" />
<glyph unicode="&#x2c6;" horiz-adv-x="746" d="M53 1226q0 66 288 308q37 -38 116 -216l48 -56v-4l-32 -36q-92 90 -124 200l-20 28q-186 -152 -228 -244h-4q-44 12 -44 20z" />
<glyph unicode="&#x2000;" horiz-adv-x="1050" />
<glyph unicode="&#x2001;" horiz-adv-x="2100" />
<glyph unicode="&#x2002;" horiz-adv-x="1050" />
<glyph unicode="&#x2003;" horiz-adv-x="2100" />
<glyph unicode="&#x2004;" horiz-adv-x="700" />
<glyph unicode="&#x2005;" horiz-adv-x="525" />
<glyph unicode="&#x2006;" horiz-adv-x="350" />
<glyph unicode="&#x2007;" horiz-adv-x="350" />
<glyph unicode="&#x2008;" horiz-adv-x="262" />
<glyph unicode="&#x2009;" horiz-adv-x="420" />
<glyph unicode="&#x200a;" horiz-adv-x="116" />
<glyph unicode="&#x2010;" horiz-adv-x="754" d="M15 558v40l8 8h512l8 -8v-40l-8 -8h-512z" />
<glyph unicode="&#x2011;" horiz-adv-x="754" d="M15 558v40l8 8h512l8 -8v-40l-8 -8h-512z" />
<glyph unicode="&#x2012;" horiz-adv-x="754" d="M15 558v40l8 8h512l8 -8v-40l-8 -8h-512z" />
<glyph unicode="&#x2013;" horiz-adv-x="1024" d="M204 512v204h616v-204h-616z" />
<glyph unicode="&#x2014;" horiz-adv-x="2048" d="M204 512v204h1640v-204h-1640z" />
<glyph unicode="&#x2018;" horiz-adv-x="265" d="M0 1463l9 7h101l19 -14l9 -228l-9 -7q-120 0 -120 50z" />
<glyph unicode="&#x2019;" horiz-adv-x="265" d="M0 1463l9 7h101l19 -14l9 -228l-9 -7q-120 0 -120 50z" />
<glyph unicode="&#x201c;" horiz-adv-x="305" d="M0 1401v44q10 80 24 80q44 -20 44 -32q-12 -19 -12 -52v-40l4 -88l-4 -4h-44q-12 0 -12 92zM88 1301q0 36 40 192h40l12 -12l-40 -192h-44q-8 0 -8 12z" />
<glyph unicode="&#x201d;" horiz-adv-x="277" d="M0 1401v44q10 80 24 80q44 -20 44 -32q-12 -19 -12 -52v-40l4 -88l-4 -4h-44q-12 0 -12 92zM88 1301q0 36 40 192h40l12 -12l-40 -192h-44q-8 0 -8 12z" />
<glyph unicode="&#x2026;" horiz-adv-x="972" d="M648 48v20q0 54 56 64h12q51 0 60 -64v-24q-40 0 -40 -36q-16 -8 -44 -8h-8l-4 4h-4l4 4v12q-32 0 -32 28zM324 48v20q0 54 56 64h12q51 0 60 -64v-24q-40 0 -40 -36q-16 -8 -44 -8h-8l-4 4h-4l4 4v12q-32 0 -32 28zM0 48v20q0 54 56 64h12q51 0 60 -64v-24 q-40 0 -40 -36q-16 -8 -44 -8h-8l-4 4h-4l4 4v12q-32 0 -32 28z" />
<glyph unicode="&#x202f;" horiz-adv-x="420" />
<glyph unicode="&#x2039;" horiz-adv-x="708" d="M30 755v16q79 13 220 152q119 150 212 216q11 -4 32 -44q-19 0 -280 -284l-104 -72q237 -240 344 -280q26 0 28 -12v-40l-4 -4v-4q-81 0 -244 148q-133 106 -204 208z" />
<glyph unicode="&#x203a;" horiz-adv-x="648" d="M15 1123l28 44q66 -43 184 -192q130 -119 232 -152v-4q-56 -100 -304 -380q-12 -32 -24 -32q-40 6 -40 20q0 34 176 224l112 148q-141 58 -304 272z" />
<glyph unicode="&#x205f;" horiz-adv-x="525" />
<glyph unicode="&#x2122;" horiz-adv-x="2336" d="M934 1512v24q0 20 20 36h40q8 0 8 -44q45 -53 320 -452q130 -170 208 -292q141 161 300 416q62 117 212 304q36 84 44 84h4q32 -97 32 -156l-8 -208v-488l28 -588v-140l-8 -8h-40l-8 8v68q0 137 -28 612v536l8 216q-145 -172 -236 -352q-157 -218 -240 -320l-80 -68 q-82 151 -316 460q-25 45 -192 276v-1384l-8 -8h-40l-8 8v1452q-12 0 -12 8zM0 1236v40l8 8l728 -4l4 -4v-44l-8 -8h-372l56 -780l4 -240v-196l-8 -8h-40l-8 8v204q0 291 -56 908l-4 108h-296z" />
<glyph unicode="&#xe000;" horiz-adv-x="1010" d="M0 1010h1010v-1010h-1010v1010z" />
<glyph unicode="&#xfb01;" horiz-adv-x="1680" d="M1002 1348q9 62 32 88l28 16h40q58 -20 144 -140q50 123 124 156l36 12h48q13 0 60 -60v-48q-38 -160 -192 -284l-20 4q-24 -12 -60 -68l-4 -4h-12q-105 47 -152 136q-39 46 -64 140zM1066 1348q0 -111 136 -244h16q41 41 96 76l64 56q72 107 72 144v28l-28 8 q-67 0 -140 -176q-31 -51 -56 -72h-4l-8 8v32q-20 99 -120 176h-12q-9 0 -16 -36zM1246 780v36l12 12h40l12 -8l4 -108v-64l12 -16l-4 -20v-8l8 -76v-20l-4 -4l12 -20l4 -156l8 -8v-132l-20 -68v-108l-12 -12h-40l-12 12v104l8 44v24l-4 28q12 0 16 68l-4 112q0 21 -12 24 l4 32l-8 76l4 4v4l-12 32l-4 176v28zM7 730v36l12 12h280q8 0 12 40l4 4q4 147 12 168v68l8 32v28l-4 24l12 24l4 108q12 0 12 80q9 3 36 124l36 72q41 64 84 80l44 28h36l16 12h204l20 -16v-44l-8 -8h-4l-12 4l-20 -4h-140l-24 4q-53 -11 -112 -48q-60 -69 -92 -228l4 -20 q-16 0 -16 -100l-8 -8l-4 -136q-12 -2 -12 -28l-4 -136l4 -4v-4q-12 -10 -16 -104l4 -4h4l368 4q4 12 24 12h108q12 -4 12 -24v-20q0 -21 -12 -24l-324 -4l-12 -8h-152q-22 0 -32 -12l4 -4v-8q0 -28 -8 -28l4 -20v-16l-12 -44l-4 -208l-4 -4h-4l-4 -620v-164q0 -20 -12 -24 h-40q-16 7 -16 28v528q12 15 12 28v60l4 300l8 8v80q1 20 8 20l-4 4v60l12 16v8l-8 8h-276z" />
<glyph unicode="&#xfb02;" horiz-adv-x="1457" d="M1002 252v120q3 24 12 24l4 340v1348q7 16 28 16h8q22 0 28 -16v-1544l-8 -28l-4 -216l4 -124l20 -100l32 -8q84 0 124 16h20q12 0 20 -40v-8q0 -17 -128 -32h-48q-72 11 -72 20l-16 68l-12 100v36q0 13 -12 28zM7 730v36l12 12h280q8 0 12 40l4 4q4 147 12 168v68l8 32 v28l-4 24l12 24l4 108q12 0 12 80q9 3 36 124l36 72q41 64 84 80l44 28h36l16 12h204l20 -16v-44l-8 -8h-4l-12 4l-20 -4h-140l-24 4q-53 -11 -112 -48q-60 -69 -92 -228l4 -20q-16 0 -16 -100l-8 -8l-4 -136q-12 -2 -12 -28l-4 -136l4 -4v-4q-12 -10 -16 -104l4 -4h4l368 4 q4 12 24 12h108q12 -4 12 -24v-20q0 -21 -12 -24l-324 -4l-12 -8h-152q-22 0 -32 -12l4 -4v-8q0 -28 -8 -28l4 -20v-16l-12 -44l-4 -208l-4 -4h-4l-4 -620v-164q0 -20 -12 -24h-40q-16 7 -16 28v528q12 15 12 28v60l4 300l8 8v80q1 20 8 20l-4 4v60l12 16v8l-8 8h-276z" />
<glyph unicode="&#xfb03;" horiz-adv-x="2682" d="M2004 1348q9 62 32 88l28 16h40q58 -20 144 -140q50 123 124 156l36 12h48q13 0 60 -60v-48q-38 -160 -192 -284l-20 4q-24 -12 -60 -68l-4 -4h-12q-105 47 -152 136q-39 46 -64 140zM2068 1348q0 -111 136 -244h16q41 41 96 76l64 56q72 107 72 144v28l-28 8 q-67 0 -140 -176q-31 -51 -56 -72h-4l-8 8v32q-20 99 -120 176h-12q-9 0 -16 -36zM2248 780v36l12 12h40l12 -8l4 -108v-64l12 -16l-4 -20v-8l8 -76v-20l-4 -4l12 -20l4 -156l8 -8v-132l-20 -68v-108l-12 -12h-40l-12 12v104l8 44v24l-4 28q12 0 16 68l-4 112q0 21 -12 24 l4 32l-8 76l4 4v4l-12 32l-4 176v28zM1009 730v36l12 12h280q8 0 12 40l4 4q4 147 12 168v68l8 32v28l-4 24l12 24l4 108q12 0 12 80q9 3 36 124l36 72q41 64 84 80l44 28h36l16 12h204l20 -16v-44l-8 -8h-4l-12 4l-20 -4h-140l-24 4q-53 -11 -112 -48q-60 -69 -92 -228 l4 -20q-16 0 -16 -100l-8 -8l-4 -136q-12 -2 -12 -28l-4 -136l4 -4v-4q-12 -10 -16 -104l4 -4h4l368 4q4 12 24 12h108q12 -4 12 -24v-20q0 -21 -12 -24l-324 -4l-12 -8h-152q-22 0 -32 -12l4 -4v-8q0 -28 -8 -28l4 -20v-16l-12 -44l-4 -208l-4 -4h-4l-4 -620v-164 q0 -20 -12 -24h-40q-16 7 -16 28v528q12 15 12 28v60l4 300l8 8v80q1 20 8 20l-4 4v60l12 16v8l-8 8h-276zM7 730v36l12 12h280q8 0 12 40l4 4q4 147 12 168v68l8 32v28l-4 24l12 24l4 108q12 0 12 80q9 3 36 124l36 72q41 64 84 80l44 28h36l16 12h204l20 -16v-44l-8 -8h-4 l-12 4l-20 -4h-140l-24 4q-53 -11 -112 -48q-60 -69 -92 -228l4 -20q-16 0 -16 -100l-8 -8l-4 -136q-12 -2 -12 -28l-4 -136l4 -4v-4q-12 -10 -16 -104l4 -4h4l368 4q4 12 24 12h108q12 -4 12 -24v-20q0 -21 -12 -24l-324 -4l-12 -8h-152q-22 0 -32 -12l4 -4v-8 q0 -28 -8 -28l4 -20v-16l-12 -44l-4 -208l-4 -4h-4l-4 -620v-164q0 -20 -12 -24h-40q-16 7 -16 28v528q12 15 12 28v60l4 300l8 8v80q1 20 8 20l-4 4v60l12 16v8l-8 8h-276z" />
<glyph unicode="&#xfb04;" horiz-adv-x="2459" d="M2004 252v120q3 24 12 24l4 340v1348q7 16 28 16h8q22 0 28 -16v-1544l-8 -28l-4 -216l4 -124l20 -100l32 -8q84 0 124 16h20q12 0 20 -40v-8q0 -17 -128 -32h-48q-72 11 -72 20l-16 68l-12 100v36q0 13 -12 28zM1009 730v36l12 12h280q8 0 12 40l4 4q4 147 12 168v68 l8 32v28l-4 24l12 24l4 108q12 0 12 80q9 3 36 124l36 72q41 64 84 80l44 28h36l16 12h204l20 -16v-44l-8 -8h-4l-12 4l-20 -4h-140l-24 4q-53 -11 -112 -48q-60 -69 -92 -228l4 -20q-16 0 -16 -100l-8 -8l-4 -136q-12 -2 -12 -28l-4 -136l4 -4v-4q-12 -10 -16 -104l4 -4h4 l368 4q4 12 24 12h108q12 -4 12 -24v-20q0 -21 -12 -24l-324 -4l-12 -8h-152q-22 0 -32 -12l4 -4v-8q0 -28 -8 -28l4 -20v-16l-12 -44l-4 -208l-4 -4h-4l-4 -620v-164q0 -20 -12 -24h-40q-16 7 -16 28v528q12 15 12 28v60l4 300l8 8v80q1 20 8 20l-4 4v60l12 16v8l-8 8h-276 zM7 730v36l12 12h280q8 0 12 40l4 4q4 147 12 168v68l8 32v28l-4 24l12 24l4 108q12 0 12 80q9 3 36 124l36 72q41 64 84 80l44 28h36l16 12h204l20 -16v-44l-8 -8h-4l-12 4l-20 -4h-140l-24 4q-53 -11 -112 -48q-60 -69 -92 -228l4 -20q-16 0 -16 -100l-8 -8l-4 -136 q-12 -2 -12 -28l-4 -136l4 -4v-4q-12 -10 -16 -104l4 -4h4l368 4q4 12 24 12h108q12 -4 12 -24v-20q0 -21 -12 -24l-324 -4l-12 -8h-152q-22 0 -32 -12l4 -4v-8q0 -28 -8 -28l4 -20v-16l-12 -44l-4 -208l-4 -4h-4l-4 -620v-164q0 -20 -12 -24h-40q-16 7 -16 28v528 q12 15 12 28v60l4 300l8 8v80q1 20 8 20l-4 4v60l12 16v8l-8 8h-276z" />
</font>
</defs>
</svg>
